<?xml version="1.0" encoding="UTF-8"?>
<svg version="1.1" viewBox="0 0 2000 2000" width="499" height="499" xmlns="http://www.w3.org/2000/svg">
<path transform="translate(1312,160)" d="m0 0h275l22 1 12 3 14 7 11 9 8 11 6 13 3 16v160l-3 16-8 16-6 8-8 7-9 6-12 4-11 2-16 1-97 1-6 2-4 5-3 6 1 5 13 10 13 11 15 14 16 17 7 7 7 8 10 10 7 8 11 12 9 11 13 15 11 13 22 28 18 22 6 15 11 20 10 18 16 34 16 38 11 30 11 33 12 45 8 36 5 28 5 39 3 31 1 26v37l-1 29-4 43-6 39-7 36-12 48-9 29-9 26-12 29-14 30-13 27-12 22-12 21-10 17-15 22-13 18-11 16-3 8-2 28-3 65-2 4-13 1-72 1-14 1-6 5-9 12-7 8-20 15-19 14-13 9-13 6 2 5 24 36 11 16 10 15 2 7v7l-4 2-125 1v8l31 4 25 5 16 6 8 5 4 5 1 2v13l-5 8-12 6-17 5-20 4-33 4-31 2h-58l-36-3-27-4-17-4-17-6-9-6-3-4v-19l-13 2-45 4-46 3-26 1-43 1h-74l-34-1-58-4-42-4-64-8-13-2h-10l-4 15-5 8-7 7-14 7-18 4h-24l-12-3-10-5-10-9-7-14-2-10v-9l3-16 6-15 10-13 8-6 8-4 4-1h18l19 4-2-9-4-19-5-5-13-8-16-9-15-12-22-14-6-5-13-4-51-11-29-9-20-8-19-10-12-9-8-8-7-11-4-10-1-4v-21l9-42 1-9-6-3-12-13-10-13-13-18-15-25-14-26-14-27-10-21-19-45-10-28-9-28-7-25-8-36-6-33-4-30-3-33-1-19v-81l2-27 5-44 7-39 8-34 8-30 12-38 13-35 12-29 14-29 14-27 14-24 6-9 1-6-7-12-12-14-6-6-3-1-102-1-20-2-13-4-10-5-12-11-9-14-4-11-2-13v-163l3-14 7-14 9-11 12-9 12-5 17-3 118-1h64l124 1 16 3 16 8 9 7 8 10 6 12 3 10 2 18v18l7-4 9-8 24-14 24-13 19-10 23-11 27-12 34-13 37-12 44-12 37-8 43-7 40-4 51-2h16l49 2 26 2 38 5 39 7 35 8 30 8 13 4 1-29 1-66 1-16 3-12 6-12 7-9 10-8 14-7 12-3zm239 115-10 5-6 7-3 9v9l4 9 6 7 7 4h15l8-4 7-8 3-8v-11l-4-10-7-6-8-3zm-210 0-10 3-8 7-3 7-1 10 2 8 5 8 5 4 9 3 11-1 8-4 5-5 4-6 1-4v-10l-4-10-8-7-12-3zm102 1-8 4-6 7-3 8v10l4 10 8 7 7 3h10l10-4 5-5 4-6 2-7v-8l-3-8-6-7-9-4zm-1090 117-13 2-10 4-11 8-7 10-5 12-2 9v8l4 4h26l5-1 8-13v-2l3-1h9l3 3 1 9-3 7-12 16-7 14-1 4v10l4 2 26 1 4-2 8-15 12-14 9-11 4-9 2-14-2-15-6-10-9-8-11-5-8-2-9-1zm2 115-8 2-8 7-3 8-1 7 2 9 4 6 4 4 6 2h14l7-4 4-5 3-7 1-7-2-10-6-8-6-3zm805 1284-1 3 1 15 48-7 11-2v-7l-1-1z" fill="#5470A9"/>
<path transform="translate(1312,160)" d="m0 0h275l22 1 12 3 14 7 11 9 8 11 6 13 3 16v160l-3 16-8 16-6 8-8 7-9 6-12 4-11 2-16 1-97 1-6 2-4 5-3 6 1 5 13 10 13 11 15 14 16 17 7 7 7 8 10 10 7 8 11 12 9 11 13 15 11 13 22 28 18 22 6 15 11 20 10 18 16 34 16 38 11 30 11 33 12 45 8 36 5 28 5 39 3 31 1 26v37l-1 29-4 43-6 39-7 36-12 48-9 29-9 26-12 29-14 30-13 27-12 22-12 21-10 17-15 22-13 18-11 16-3 4 4-115 5-117 6-132v-23l-92-1-3-4-8-20-12-25-12-21-12-19-13-19-13-18-22-28-22-26-18-20-11-12-15-16-27-27-8-7-9-9-8-7-12-11-11-9-13-11-16-12-3 11-7 17-9 14-9 10-9 8-12 7-13 5-17 4h-5l6 10 9 14 11 17 8 12 11 17 7 10 22 32 14 20 12 17 13 18 5 7v2h2l15 21-1 2-24-11-31-15-28-13-42-19-28-13-29-11-20-6-26-6-41-7-9-10-12-13-7-7-9-12 2-4 13-8 10-8 12-12 12-17 7-11 10-22 11-33 5-21 2-3h10l10-5 7-8 7-14 4-14 2-14v-12l-2-14-5-16-6-12-7-8-9-5v-3h5l3-17 4-21 4-33v-32l-3-21-4-13-6-14-7-10-9-10-10-8-15-8-18-6-15-3-10-1h-55l-14-3-15-2h-34l-19 2-20 5-19 7-15 8-14 10-14 12-11 9-5 4-7 8-12 15-9 15-6 12-7 18-6 23-4 25-1 13v24l3 29-1 13-1 5v18l4 19 5 12 6 10 4 5 10 5 8 3 5 10 8 21 9 16 8 12 9 11 11 12 13 12 1 3v37l-8 11-9 10-9 11-8 9-56 7-40 7-36 9-24 8-18 8-15 8-15 10-13 10-12 12-11 14-12 17-14 23-18 34-15 32-13 31-12 30-16 43-7 20-17 50-6 21-3 8-12 39-5 17-11 37-9 31-2 1-6-3-12-13-10-13-13-18-15-25-14-26-14-27-10-21-19-45-10-28-9-28-7-25-8-36-6-33-4-30-3-33-1-19v-81l2-27 5-44 7-39 8-34 8-30 12-38 13-35 12-29 14-29 14-27 14-24 6-9 1-6-7-12-12-14-6-6-3-1-102-1-20-2-13-4-10-5-12-11-9-14-4-11-2-13v-163l3-14 7-14 9-11 12-9 12-5 17-3 118-1h64l124 1 16 3 16 8 9 7 8 10 6 12 3 10 2 18v18l7-4 9-8 24-14 24-13 19-10 23-11 27-12 34-13 37-12 44-12 37-8 43-7 40-4 51-2h16l49 2 26 2 38 5 39 7 35 8 30 8 13 4 1-29 1-66 1-16 3-12 6-12 7-9 10-8 14-7 12-3zm239 115-10 5-6 7-3 9v9l4 9 6 7 7 4h15l8-4 7-8 3-8v-11l-4-10-7-6-8-3zm-210 0-10 3-8 7-3 7-1 10 2 8 5 8 5 4 9 3 11-1 8-4 5-5 4-6 1-4v-10l-4-10-8-7-12-3zm102 1-8 4-6 7-3 8v10l4 10 8 7 7 3h10l10-4 5-5 4-6 2-7v-8l-3-8-6-7-9-4zm-1090 117-13 2-10 4-11 8-7 10-5 12-2 9v8l4 4h26l5-1 8-13v-2l3-1h9l3 3 1 9-3 7-12 16-7 14-1 4v10l4 2 26 1 4-2 8-15 12-14 9-11 4-9 2-14-2-15-6-10-9-8-11-5-8-2-9-1zm2 115-8 2-8 7-3 8-1 7 2 9 4 6 4 4 6 2h14l7-4 4-5 3-7 1-7-2-10-6-8-6-3z" fill="#FAFBFD"/>
<path transform="translate(903,487)" d="m0 0h34l26 4 3 1h55l21 3 16 5 12 5 12 7 12 11 9 11 7 14 4 11 3 12 2 16v32l-4 33-7 36-1 2h-5l1 3 9 5 7 8 7 14 5 19 1 9v12l-3 18-5 15-6 10-7 8-10 5h-10l-4 15-6 21-9 25-8 17-9 14-8 11-9 10-9 9-13 9-8 5 2 5 11 13 11 11 7 8 5 6 41 7 30 7 30 10 19 8 28 13 40 18 38 18 29 14 14 6-7-11-7-9v-2h-2l-9-13-10-14-13-18-4-6-7-10-26-38-9-13-7-11-8-12-11-17-9-14-5-8v-2l22-5 17-7 12-8 11-11 9-14 6-12 7-19 4 2 14 11 26 22 24 22 7 7 8 7 31 31 7 8 7 7 7 8 12 13 9 11 13 15 13 17 12 15 12 17 20 30 13 22 12 23 11 26 1 6-6 1h-554l2-4 10-13 8-13 7-15 7-21 4-22 1-13v-89l-15 4-11 1h-16l-25-2-24-5-23-7-20-9-13-7-16-11-2-1 1 36 2 18 8 34 8 25 10 25 12 23 12 19 11 18 9 15 8 11v3h-59l-2-1-1 37-5 107-2 20-4-1-13-12-15-16-11-9v-2l-6-1-3 3h-2l-2 4-20 20-5 4-9 9-4-1-9-10-21-21-6-4v-2l-7-1-8 7-11 11-5 7-1 4h-2v10l-6 16-3 6-2 7-5 12-5 13-8 16-8 17-6 10-6 11-9 16-5 7-4 7-13 20-17 25-8 12-7 10-4 7 16 4 32 9 18 6v2l14 3 8 4 17 5 15 6 33 11 8 3 13 4 18 6-5 5-8 6-8 8-6 10-2 5-1 6v15l4 17 7 17 3 6v4l-32 2-5 2-8 12-13 18-8 12-14 20-10 15h-2l-2 5-6 5-5-1-2-3 1-22 2-30 1-29-1-3-23-2-32-2-46-5-16-3-43-9-27-8-22-8-20-10-14-10-9-9-7-11-4-10-1-4v-21l9-42 5-21 14-47 6-21 2-6 14-46 3-9 18-55 7-20 3-8 14-38 12-30 12-29 12-26 12-25 12-22 12-20 11-16 11-14 11-12 7-7 11-8 15-10 23-12 24-9 29-8 28-6 36-6 49-6 10-11 9-11 11-13 3-5v-38l-7-8-10-9-11-12-11-15-9-15-8-19-6-15-2-3-12-4-7-5-7-10-6-13-4-16-1-6v-18l2-12-1-15-2-20v-24l2-21 5-26 6-19 8-20 12-20 13-16 9-10 14-11 11-10 17-12 17-9 20-7 17-4z" fill="#222278"/>
<path transform="translate(1086,1161)" d="m0 0h228l238 1h39l8 1 2 2v24l-1 58-3 51-1 37-1 24-1 14-1 11-1 36-2 30-1 28v12l-1 20-1 15-1 25-1 26v20l-2 16-2 3-22 2h-24l-22-1-154-1h-16l-10-1-1-25-1-6v-164l-113 1v105l-1 89-70 1h-287v-36l2-57 8-174 2-46 2-54 4-84 1-1 44-1h83z" fill="#445E95"/>
<path transform="translate(1312,160)" d="m0 0h275l22 1 12 3 14 7 11 9 8 11 6 13 3 16v160l-3 16-8 16-6 8-8 7-9 6-12 4-11 2-16 1-97 1-6 2-4 5-6 10-9 9-1 2h-2l-2 4-11 14-10 11-11 14-4 5h-2l-2 4-10 13-10 11-10 13-9 10-11 14-11 13-8 11-3 3h-2l3-10 8-20 10-27 13-34 13-35 10-29 4-12h-114l-14-3-9-4-11-7-10-9-9-14-4-11-2-12-1-57 1-31 1-66 1-16 3-12 6-12 7-9 10-8 14-7 12-3zm239 115-10 5-6 7-3 9v9l4 9 6 7 7 4h15l8-4 7-8 3-8v-11l-4-10-7-6-8-3zm-210 0-10 3-8 7-3 7-1 10 2 8 5 8 5 4 9 3 11-1 8-4 5-5 4-6 1-4v-10l-4-10-8-7-12-3zm102 1-8 4-6 7-3 8v10l4 10 8 7 7 3h10l10-4 5-5 4-6 2-7v-8l-3-8-6-7-9-4z" fill="#CBD5F2"/>
<path transform="translate(323,330)" d="m0 0h64l124 1 16 3 16 8 9 7 8 10 6 12 3 10 2 18 1 19v129l-2 15-3 10-8 13-11 12-13 9-14 5-7 1-39 1h-76l2 8 7 20 13 35 7 18 7 20 8 20 9 24 6 14-1 5-5-3-2-4h-2l-10-14-6-7v-2h-2l-8-11-13-16-5-6-4-4v-2h-2l-10-13-10-12v-2h-2l-1-4-3-1-10-14-3-3v-2h-2l-9-11-4-4-7-11-11-13-6-6-3-1-102-1-20-2-13-4-10-5-12-11-9-14-4-11-2-13v-163l3-14 7-14 9-11 12-9 12-5 17-3zm30 63-13 2-10 4-11 8-7 10-5 12-2 9v8l4 4h26l5-1 8-13v-2l3-1h9l3 3 1 9-3 7-12 16-7 14-1 4v10l4 2 26 1 4-2 8-15 12-14 9-11 4-9 2-14-2-15-6-10-9-8-11-5-8-2-9-1zm2 115-8 2-8 7-3 8-1 7 2 9 4 6 4 4 6 2h14l7-4 4-5 3-7 1-7-2-10-6-8-6-3z" fill="#CBD5F2"/>
<path transform="translate(912,587)" d="m0 0h115l16 5 10 7 9 9 9 13 9 19 5 14 4 15 1 10 2 10 3 26v36l-3 31-5 30-6 26-9 27-8 18-9 17-12 18h-2l-2 4-6 7-14 11-10 6-13 5-12 2h-31l-23-3-25-6-17-6-21-10-19-12-11-9-12-11-12-12-10-13-9-15-10-19v-2l4 2 10 9 13 8 9 4 15 3 21 1 7 3 6 1h36l5-3h2l2-5v-6l-4-7-4-2h-40l-6 4h-23l-16-4-11-6-10-9-5-5-8-9-2-3 1-4 6-8 5-10 4-13 2-15v-14l-2-19 3-21 6-28 6-21 8-18 8-13 9-10 10-9 14-8 18-7 13-4z" fill="#FAFBFD"/>
<path transform="translate(1263,822)" d="m0 0 4 2 14 11 26 22 24 22 7 7 8 7 31 31 7 8 7 7 7 8 12 13 9 11 13 15 13 17 12 15 12 17 20 30 13 22 12 23 11 26 1 6-6 1h-554l2-4 10-13 8-13 7-15 7-21 4-22 1-13v-89l-4-1 8-2-1 4 7 9 9 10 8 8 7 8 5 6 41 7 30 7 30 10 19 8 28 13 40 18 38 18 29 14 14 6-7-11-7-9v-2h-2l-9-13-10-14-13-18-4-6-7-10-26-38-9-13-7-11-8-12-11-17-9-14-5-8v-2l22-5 17-7 12-8 11-11 9-14 6-12z" fill="#222278"/>
<path transform="translate(1326,1684)" d="m0 0 5 1 1 93h114l14 1 1 4v7l-4 2-125 1v8l31 4 25 5 16 6 8 5 4 5 1 2v13l-5 8-12 6-17 5-20 4-33 4-31 2h-58l-36-3-27-4-17-4-17-6-9-6-3-4v-19l-13 2-45 4-46 3-26 1-43 1h-74l-34-1-58-4-42-4-64-8-13-2h-10l-4 15-5 8-7 7-14 7-18 4h-24l-12-3-10-5-10-9-7-14v-7l3 1 1 2 2-1 2 5 5 2 5 3 4 2 18 3h12l17-4 16-6 8-5 4-5 5-8 1-4v-9l-4-12v-4-2l14-1 27-1h417l76 3h31l1-1v-91l14-1zm-166 108-1 3 1 15 48-7 11-2v-7l-1-1z" fill="#445E95"/>
<path transform="translate(847,1668)" d="m0 0 10 1 6 4 5 8 7 18 7 9 4 2 4-1 5-9 2-10 1-22 5 2 1 3 7 3 9 11 11 15 8 11 1 1v6l8 1h29l2-3v3l3-1 2 1 18 1v21h3v-12l2-7 2-1h32l4 3v16l5 2-1-17 4-4h31l3 1 2 7v9l-1 4h7l-2-9v-9l1-2 3-1-25-1-5-3v-15l1-1 15-1h19l3 1 2 10v7l-1 2 22 1 3 5 2 13v2h6l-2-7v-11l3-2-24-1-5-2-1-4v-12l1-1 8-1h26l4 6 1 8-1 6h7l-3-6-1-3v-9l1-1 10-1h23l4 2 4 18 18 1 5 2 1 6v15l1 18v13l-2 2h-35l-74-3h-425l-24 1-6 1-1 4 4 9 1 4v9l-3 7-5 8h-2l-2 4-14 7-16 5-12 2h-10l-12-2-9-2-3-2-8-5-3-3-2-1v-2h-2l-2 2-1-6v-9l3-16 6-15 10-13 8-6 8-4 4-1h18l19 4-2-9-4-19-5-5-13-8-16-9-15-12-22-14-6-5-5-2 4-1 46 5 45 3 10 1 2 4-1 29-2 30-1 22 2 3 6-1 6-8h2l2-5 8-11 13-19 8-12 13-18 10-14 4-1 17-1h15l1-2 18 2h25l20-3 22-6z" fill="#536FA9"/>
<path transform="translate(975,492)" d="m0 0h46l21 3 16 5 12 5 12 7 12 11 9 11 7 14 4 11 3 12 2 16v32l-4 33-7 36-1 2-5 1-2 38-1 5-1 18-1 1-1 9h-1l-1-47-4-34-1-2-1-10-5-17-6-17-10-19-9-11-7-7-10-6-14-4h-115l-16 2-27 9-15 8-10 8-9 9-10 16-8 18-6 21-7 33-1 7-3 3-4-6-6-11-7-7-10-5-10-2-1-2v-15l4-28 6-29 5-15 7-16 9-17 8-12 9-12 11-11 11-8 15-9 15-6 9-3h8l18-5 27-5 25-4z" fill="#5B0809"/>
<path transform="translate(1007,950)" d="m0 0 2 1v4l6 8 9 10 8 8 7 8 5 6 41 7 30 7 30 10 19 8 28 13 40 18 38 18 29 14 11 5v3h-2v2h-2l1 7 14 25 4 8v2l-2 1h-357l2-4 10-13 8-13 7-15 7-21 4-22 1-13v-89l-4-1z" fill="#222278"/>
<path transform="translate(1217,1419)" d="m0 0h114l1 35v133l1 47 2 8 9 15 6 7v2h2l4 6 2 4v3h2l5 9 7 10v4l5 2 7 11 2 3v3l-7 1h7l4 2v2h2l7 12 1 5 5 5 5 9-3 2-31 1-9-6h-2l-2 4-2 1-17 1-11-1-1-1v-74l-112 1-4-1v-4h-11l-10-1-3-2-3-11v-7l3-1-6-2-3-9v-9l3-1h30l1-9z" fill="#6584C2"/>
<path transform="translate(804,1338)" d="m0 0 6 5 7 8 20 20 8 7 5 4-1 31-6 135-1 23-5 1-4-1-18-2-16-1-35-5-19-4-18-5-24-9-13-7-9-6-6-7v-2l-3-1-4-10-3-11-1-22 1-27 4-32 4-25 1-12 3-2 3-5 20-20 1-2h2l2-4 7-6 1-2h2l1-3h3l8 10 22 22 10 8 6 1v-3l5-3 19-19 7-8z" fill="#222278"/>
<path transform="translate(763,1581)" d="m0 0 29 1 47 2 2 1v22l-1 26 107 1 6 5v-2l93-1h53l71 1 8 1 4 14v5 2l3 3 3 8v10h13l10 1 4 7 1 2v10l-1 2h2l1 3v16l-1 1h-16l-4-2-3-10 1-7 6-1-19-1-4-5-2-13 4-3-26-1-3-5-1-3v-9l2-3h-7l2 4 1 7v10h18l7 3 2 10v7l-1 1h-32l-5-5-1-4v-10l1-1h-7l2 1 2 12v5l-2 2h-33l-4-4v-14l3-2h-9l3 3 1 16-1 1h-34l-3-1-1-2v-14l3-3h-7l1 1v18l-3 1h-33l-2-2v-17l1-1h-5l1 1v18l-1 1h-36l-2-5 1-14 1-1 20-1v-2-12l2-7h-5l1 13-2 7h-35l-1-1v-8l2-7h2v-4h-5l-1 16-1 5h13l7 2-1 19 8 1 1 1 1 15-2 4h-29l-10-1 2-1-2-7-9-12-10-14-8-10-8-4-1-3-4-2 1 7-2 21-3 7-5 8-5-1-6-5-5-9-9-21-5-4-6-2-14 1-24 6-14 3-9 1h-25l-18-2-8-16-5-13-3-14v-15l2-9 5-9 9-10 8-7z" fill="#6584C2"/>
<path transform="translate(840,916)" d="m0 0 5 2 18 12 23 11 21 7 25 6 14 2 17 1h16l16-2 6-2h4l1 6v83l-2 19-3 16-7 21-9 19-12 17-8 9h-43l-12-17-14-24-11-17-12-21-9-19-8-21-8-28-7-31-1-13z" fill="#FAFBFD"/>
<path transform="translate(670,1794)" d="m0 0h489v15l-10 4-12 6-6 5-2 1-30 3-54 4-43 2-43 1h-74l-34-1-58-4-42-4-64-8-18-3-4-2-2-8 1-8z" fill="#222378"/>
<path transform="translate(903,487)" d="m0 0h34l26 4 3 2-29 4-24 4-24 5-10 3h-8l-15 5-16 8-11 7-11 9-9 9-9 13-11 18-9 19-5 13-6 25-5 30-1 9v17l13 2 9 6 8 9 7 13 2-1v12l2 15v14l-3 19-6 16-7 10-2 2 1 4 7 9 4 5 8 7 11 7 10 4 10 2h23l6-4h40l6 4 3 6v6l-3 5-7 4h-36l-7-2-6-2-21-1-15-3-16-8-12-9-8-7-1 2-4-8-2 1-5-12-8-3-10-5-8-10-7-15-4-16-1-6v-18l2-12-1-15-2-20v-24l2-21 5-26 6-19 8-20 12-20 13-16 9-10 14-11 11-10 17-12 17-9 20-7 17-4z" fill="#4B5282"/>
<path transform="translate(975,492)" d="m0 0h46l21 3 16 5 12 5 12 7 12 11 9 11 7 14 4 11 3 12 2 16v32l-4 33-7 36-1 2-5 1-2 38-1 5-1 18-1 1-1 9h-1l-1-47-4-34-1-2-1-10-5-17-6-17-10-19-9-11-7-7-10-6-14-4-67-1-30-1v-1l27-1 24-3 17-4 1-1 10-1 9-4 17-5 8-1 8 1 9 4 13 9 3 1-3-9-8-10-14-10-15-5-17-2h-12l-18 2-10 3-8 3-13 5-7 5-6-1 3-5 3-4h2v-2l10-8 12-9 9-6 12-6v-4l-13 1-23 8-12 5-10 7-7 3-4-2 1-5 3-5h2v-2h2l2-4 3-3h2v-8l-3-3-7-4 1-5 8-3 18-3v-1z" fill="#7A0C0E"/>
<path transform="translate(763,1581)" d="m0 0 29 1 47 2 2 1v22l-1 26 107 1 5 5 7 10 2 3v5l-1 1h-10l-14-5-11-8-6-4 10 11 9 16 8 18 1 4v17l-4 7-5-1-9-12-10-14-8-10-8-4-1-3-4-2 1 7-2 21-3 7-5 8-5-1-6-5-5-9-9-21-5-4-6-2-14 1-24 6-14 3-9 1h-25l-18-2-8-16-5-13-3-14v-15l2-9 5-9 9-10 8-7z" fill="#F8FAFD"/>
<path transform="translate(459,872)" d="m0 0h17l14 3 14 6 10 7 10 10 9 15 5 15 1 5v19l-6 16-7 13-7 9-8 7-15 9-14 5-3 1h-19l-16-5-11-6-13-10-7-8-6-10-6-15-1-3v-22l2-9 4-12 8-13 9-10 10-7 12-6z" fill="#CBD5F2"/>
<path transform="translate(1159,1795)" d="m0 0h1l1 14 47-7 10-1 1 17v8l21 1 55 1 25-1h10l1-23 1-2h9l28 4 22 5 13 5 8 5 4 5 1 2v13l-5 8-12 6-17 5-20 4-33 4-31 2h-58l-36-3-27-4-17-4-17-6-9-6-3-4-1-20 8-6 12-6 7-2z" fill="#5470AA"/>
<path transform="translate(687,1305)" d="m0 0 2 3-4 14-4 20-1 9v11l-3 8v9 3l-2 4-4 28-4 30-1 11-1 27 1 19 5 17 2 4 3 3 6 7 13 8 13 6 21 8 24 6 23 4 20 2 3 1 16 1 21 2 5 2v11l-1 1h-27l-40-2-9-1-26-9-12-3-7-3-18-6-11-4-17-6-15-5-9-4-11-3v-2l-9-2-26-8-29-8-2-1 1-4 7-10 10-15 17-25 11-17 5-7 5-9 15-25 14-28 8-17 5-11 5-14 2-3 3-9 6-15z" fill="#2A2B92"/>
<path transform="translate(1083,1702)" d="m0 0h19l3 1 2 10v7l-1 2 22 1 3 5 2 13v2h6l-2-7v-11l3-2-24-1-5-2-1-4v-12l1-1 8-1h26l4 6 1 8-1 6h7l-3-6-1-3v-9l1-1 10-1h23l4 2 4 18 18 1 5 2 1 6v27l-4 2h-10l-5-5-3-1v5l-1 1-13 1h-19l-4-4-2-10-6-2 3 9v6l-19 1h-12l-5-2-2-3-1-11h-5l2 5 1 8-2 2h-35l-2-6v-6l3-3h-8l1 1v13l-1 1-12 1h-20l-3-1-1-3v-10l2-2h-5l-1 5 1 9-1 1-19 1h-14l-5-3-1-8 3-5h-5l-2 14-1 1-14 1h-18l-4-1-2-5v-3h2l1-6 1-1 10-2v-11l2-7 7-2h26l6 2v18h3v-12l2-7 2-1h32l4 3v16l5 2-1-17 4-4h31l3 1 2 7v9l-1 4h7l-2-9v-9l1-2 3-1-25-1-5-3v-15l1-1z" fill="#6584C2"/>
<path transform="translate(544,1674)" d="m0 0 36 4 39 3 23 1 2 2-1 40-2 26v19l8 11 3 7 1 8-1 9-1 8-6 8-10 6-12 4-12 2h-20l-14-2-10-5-5-4-8-13v-4h-2l1-9 5-15 7-11 8-9 13-7 4-1h18l19 4-2-9-4-19-5-5-13-8-16-9-15-12-22-14-6-5z" fill="#6584C2"/>
<path transform="translate(716,1278)" d="m0 0 5 2 8 10 26 26 4 3h6v-2l8-7 7-7 6-7 6-5 12-12 4 1 11 12 22 22 9 6 2 1v16l-1 21-1 8-5-2-5-5v-2l-4-2-5-5-1-3-4-2-16-16-2-1v-2h-5l-41 41-4-2-18-18-7-8-8-8-7-5-4 1-34 34h-1v-10l3-19 5-22 9-11 18-18z" fill="#232378"/>
<path transform="translate(738,1681)" d="m0 0h10l19 2-1 9-4 6-1 3h-4v2l2 1-3 12-5 6-3 1 1 4-1 3 8-8 1-5 5-12 3-3h40l5 1-1 8-3 10-1 1 19 1 6 1-1 9-3 9-5 3 1 1-1 9-5 5-7 1h-27l-1-1v-6l3-9-3 1-4 14-2 1h-38l-3-5-4 4-2 1h-34l-2-2 3-7 7-8 2-7 5-8 4-5 3-2v-4l4-8 7-9 2-4 5-11z" fill="#6483C1"/>
<path transform="translate(1362,1634)" d="m0 0h137l-5 5-10 13-7 8-20 15-19 14-13 9-13 6-5-5-26-36-13-19-6-9z" fill="#FAFBFD"/>
<path transform="translate(1549,681)" d="m0 0 4 2 11 9 13 10 4-2 13-10 3-3h2v-2l4-2h5l12 14 9 11 12 13 7 8 2 4h2v2l-8 1-62 1h-44l-25-1-7-1 2-5 11-13 4-4 1-3 8-7 12-16 3-3z" fill="#CBD5F2"/>
<path transform="translate(761,704)" d="m0 0h8l7 5 7 11 4 10 4 9 2 4 2 6 1 5 2 2v9l-2 7-1 9-1 2h-2v6l-2 2-2-6 1-3-2 1-2 5-2 3v7l-4 9-1 3h-2l-1 3h-2v2l-5 1-11-4-5-4-7-10-6-13-4-16-1-6v-18l2-12v-12l1 4 3-1 1-3h2l1-5h2v7l5-1 6-2 1-9z" fill="#445E94"/>
<path transform="translate(641,1409)" d="m0 0 2 1 1 56 2 54v18l-8-1-31-10-33-9-2-1 1-4 7-10 10-15 17-25 11-17 5-7 5-9 6-10z" fill="#F8F9FD"/>
<path transform="translate(1029,1636)" d="m0 0h70l71 1 8 1 3 9v9l-1 1-119 1h-99l-4-9-6-9 1-3z" fill="#718EC8"/>
<path transform="translate(1527,639)" d="m0 0h119l2 3-8 7-10 8-4 2v2l-26 20-9 8-10 7-4 1-9-6-26-22-7-5-5-5-15-11v-2l-5-2-2-3 3-1z" fill="#CBD5F2"/>
<path transform="translate(1471,824)" d="m0 0 18 1 8 4 6 4 7 10 3 7 1 9-2 13-6 10-8 7-9 5-4 1h-13l-9-3-12-9-6-8-3-7v-16l3-9 6-8 7-6 9-4z" fill="#FBFCFE"/>
<path transform="translate(1473,815)" d="m0 0h10l14 3 10 7 10 11 5 11 2 13-2 13-5 13 4 4 13 8 13 11 12 11 8 8 2 3-1 7-5 4h-6l-9-7-10-9-11-9-6-6v-2h-2l-8-10-2-2-4 1-10 6-8 2h-16l-13-4-10-6-8-9-7-14-1-5v-12l3-12 6-11 5-6 11-7 7-3zm-2 9-10 3-8 6-6 7-4 8-1 4v16l6 12 9 8 8 5 7 2h13l8-3 10-7 7-9 3-7 1-12-2-10-6-10-4-5-9-5-4-2z" fill="#CBD5F2"/>
<path transform="translate(1101,691)" d="m0 0 8 5 7 6 7 11 5 13 3 13 1 9v12l-3 18-5 15-6 10-7 8-10 5h-10l-3 12-2-4-2 2 1-9 5-27 3-26 1-13 2 2 1-1 1-18 1-5z" fill="#4C5282"/>
<path transform="translate(1050,1010)" d="m0 0 2 1 8 26 3 18 2 13 1 23-1 17-2 18-3 10-2 6v1h-92l2-4 10-13 8-13 1-2h4l2-4 3-7h3v-3l3-2 8 1 6 4 10 8 5 5v2l3 1 7 9v2l3 1 2 3 4-9 2-4 1-13 1-1 2-19v-25l-5-41z" fill="#292A91"/>
<path transform="translate(1132,1834)" d="m0 0 2 1v2l4 2 14 5 23 5 13 3h8l10 2 10 1 20 1h12l15 1h24l30-1 19-1 6-1 18-2 4-1 19-3 7-2 7-1 7-3 7-2 4 1-1 5-5 5-12 5-14 4-20 4-33 4-31 2h-58l-36-3-27-4-17-4-17-6-9-6-3-4z" fill="#466097"/>
<path transform="translate(647,1681)" d="m0 0h59l5 1-5 9-11 15-7 10-13 19-11 16-6 9h-2l-2 5-6 5-5-1-2-3 1-22 2-30 1-32z" fill="#292A92"/>
<path transform="translate(544,1674)" d="m0 0 36 4 39 3 23 1 2 2-1 40-3 40h-4l-11-7 2-1-2-9-4-19-5-5-13-8-16-9-15-12-22-14-6-5z" fill="#FBFCFE"/>
<path transform="translate(1620,1118)" d="m0 0h7l6 5 6 12v45l-3 31-5 26-4 13-2 3h-2l-1 6-3 7-3 49-6 147-2 50-1 17-2 2 4-115 5-117 6-132v-23l-92-1v-1l77-1 3-1h13v-3l-11-1-1-5 8-11z" fill="#CBD5F2"/>
<path transform="translate(801 1e3)" d="m0 0h2l2 6 1 22 3 18 1 20 1 4 2 18 3 18 2 6 3 16 9 26 4 9 1 3 5-5 10-14 9-11 6-4 8-8 8-7 11-8 6 1 6 8 3 5 7 11 2 1 1 7h-55l-2-1-1 10-4 1-21 35-2 4-2-1-7-18-8-30-7-33-2-16-3-23-2-29-1-31v-8z" fill="#282991"/>
<path transform="translate(879,1723)" d="m0 0h32l4 2 1 5-3 13h-3v2l7-1 1-11 3-9 2-1h25l10 1 1 5-1 14-12 2-1 15-26 1h-7l-5-2v-12l2-3-4 2-3 13-1 1h-36l-1-5 4-9 5-2-1-3 5-17z" fill="#718EC8"/>
<path transform="translate(825,1702)" d="m0 0h23l3 1v7l-2 10h3l1-9 3-8 21-1 5 6 4 2 8 1v4h-2l-2 6-2 1-30 1 14 1v8l-3 10-3 2-5 1 2 4-2 9v2l-22 1h-13l-3-1v-9h2l2-5 5-1-3-2 3-12 3-7 1-1-26-1-2-1 2-10 5-8z" fill="#708EC8"/>
<path transform="translate(952,1659)" d="m0 0h5v4l-2 1-1 6v8h35l1-11v-8h5l-1 7v12l2 2-8 1-15 1-1 14 1 5 36-1v-18l-1-2h9l-3 2v17l1 1h36l-1-18-3-2h14l-4 2h-2v18l19 1-1 2-5 1v15l4 2 28 1-3 2h-3v11l1 9h-7v-13l-1-7h-34l-3 3v8l1 4-1 5-5-1-1-3v-14l-3-2h-32l-2 1-1 6v13l-5-1v-20l-17-1-5-1-1-6-1-12-29-1v-1h21v-19l-19-2 1-17z" fill="#506BA4"/>
<path transform="translate(522,1489)" d="m0 0 21 1 21 2h7l9 3 6-1-3 6-7 10-4 7 5 1-4 1-3-2-23-3-17-3-25-3-23 1-23 3-19 5-25 10-3-1v-2l5-5 5-4 6-3 7-4 16-7 12-4 24-4 6-2z" fill="#292A92"/>
<path transform="translate(833,565)" d="m0 0h23l19 3 7 2 3 2v2l-5 3-12 2-12 1-21 7-15 9-12 8h-2l-1 3-5 5-3 1-1 3-4 4h-2l-2 4-5 5-5 7h-2l-1 5-4 1-1-1 1-11 5-22 9-21 6-11 5-6h14z" fill="#7B0B0D"/>
<path transform="translate(803,1264)" d="m0 0 4 1 8 7 10 9 15 16 11 9 2 1v10l-2 3-5-1-13-12-23-23-3-4-4 1-8 8h-2l-2 4h-2l-1 3-5 5h-2l-2 4-12 12h-2v2l-6 1-12-11-22-22-4-5v-2l-5-1-7 8-15 15-4 5h-2v-12h2l1-6 12-13 10-10 6-1 3 2v2l4 2 8 7 23 23 2 3 4-1 6-5 5-6 8-7 20-20z" fill="#7490C9"/>
<path transform="translate(847,1668)" d="m0 0 10 1 6 4 5 8 7 18 1 2h-28v-7l4-11 1-2h-3l-5 20h-78l1-6 4-8 6-5-2-2 25-2 14-3 24-6z" fill="#718EC8"/>
<path transform="translate(715,1325)" d="m0 0 5 1 13 12 7 7 7 8 13 13h2l40-40 3-1 3 1v2l4 2 16 16 6 5 4 5 5 5 7 8v3l-4-1-7-8-33-33v-2h-3l-1 4 2 1-5 2-25 25-7 6-2 4-2 1 4 2 3-6 4-1 4-5 2-4h2l1-3 8-7 11-11 6-1 9 10 32 32-1 4-8-7-10-9-20-20-5-6-14 14-7 8-16 16h-3v3h-6l-14-12-22-22-4-5v-2l-3 1-1 2h-2l-2 4-7 6-1 2h-2l-2 4-22 22h-1v-10l4-10z" fill="#C2CEEE"/>
<path transform="translate(789,543)" d="m0 0h2l-1 4-9 13-10 19-10 27-5 18-5 26-3 31-1 23-6 20-2 2-2-1-2-7-2-20v-24l2-21 5-26 6-19 8-20 12-20 13-16z" fill="#780E12"/>
<path transform="translate(800,828)" d="m0 0 7 6 14 8 16 4h23l6-4h40l6 4 3 6v6l-3 5-7 4h-36l-7-2-6-2-21-1-15-3-7-3v-3l2-1-2-5h-5l-4-5-6-4-1-4h5l-3-3z" fill="#455E95"/>
<path transform="translate(1650,647)" d="m0 0 4 1 1 9v71l-2 1-5-5-12-13-9-11-12-14-5-6 1-4 3-3 6-2v-2l6-4 14-11z" fill="#CBD5F2"/>
<path transform="translate(1503,644)" d="m0 0 4 2 12 10 28 21-2 5-12 13-10 13-18 20h-2l-1-3v-67z" fill="#CBD5F2"/>
<path transform="translate(1085,823)" d="m0 0 2 1v7l-6 21-9 25-8 17-9 14-8 11-9 10-9 9-13 9-5 3-5 2h-5v2l-11 3-11 1h-16l-25-2-24-5-23-7-20-9-13-7-16-11v-2l-4 1-11-12-8-7-12-13-11-15-9-15-8-19-1-8 4 5 1 5h2l12 23 8 12 7 9 9 10 12 12 14 11 15 10 17 9 17 7 24 7 23 4 10 1h31l15-3 12-5 11-7 14-12 5-7h2l2-5 7-10 9-16 8-17 7-19 7-25h2z" fill="#541A2C"/>
<path transform="translate(1336,1703)" d="m0 0h37l4 5 4 8-1 4-19 1h-6l-1 1-5 1 3 2h-5v2l2 1 1 5 4 10 2 1v2h2v2l5 2 1 7-3 2-17 1-11-1-1-1v-39l1-15z" fill="#6584C2"/>
<path transform="translate(918,1640)" d="m0 0 5 2 10 8 9 4 8 3 9 1v1h-7l-1 16-1 5h13l7 2-1 19 8 1 1 1 1 15-2 4h-29l-10-1 2-1v-6l3-1 3-6v-17l-6-16-10-19-9-11z" fill="#708DC8"/>
<path transform="translate(897,580)" d="m0 0h8l6 2 1 4h9v1l-25 3-27 9-15 8-10 8-9 9-10 16-8 18-4 12h-1v-7l4-11 1-5-1-8 3-13 4-10 5-8h2l2-4 7-6 7-4 5-1v-2l13-5 16-3 8-2z" fill="#7A0C0F"/>
<path transform="translate(544,1674)" d="m0 0 36 4 39 3 23 1 2 2-1 40-3 40h-4l-11-7 2-1-2-9-2-11v-14l1-13 3-15 2-3 8-2 1-5h-14l-49-4-25-3-6-2z" fill="#CBD5F2"/>
<path transform="translate(824,1724)" d="m0 0h6l-1 9-3 9-5 3 1 1-1 9-5 5-7 1h-27l-1-1v-6l3-9-3 1-2 8-5 5-31 1-5-1 1-7 5-7h3v-2h-2l1-3 1 2h66l7-3 3-5 2-6z" fill="#6483C1"/>
<path transform="translate(759,1724)" d="m0 0h65l2 6-4 8-5 4-4 1h-52l-14-1 1-5 5-10 2-2z" fill="#728FC9"/>
<path transform="translate(838,526)" d="m0 0h7l5 3 8 5 13 5 10 4v4l-8 2h-16l-9 1-13 3-17 6-8 4-10 2 2-6 10-14 3-5 3-3 7-3 10-7z" fill="#7A0A0C"/>
<path transform="translate(767,711)" d="m0 0h2l4 4 2 1v2l4 2 4 8 3 9 2 8v21l-4 15-5 7-5-2-2-3-1-7-1-1v-28l-4-14-2-9-1-1v-8z" fill="#5470AA"/>
<path transform="translate(1355,1720)" d="m0 0h7l11 2-1 2-9 1v2h-2v6h2l5 6 2 1h26l-5-10-4-5 1-2 2 1v2h2l7 12 1 5 5 5 5 9-3 2-31 1-9-6h-2v-2h-2v-2l-5-2v-2h-2l-2-2h-1l-3-9-2-4-1-6v-1l-12-1v-1l19-1z" fill="#6483C0"/>
<path transform="translate(847,1668)" d="m0 0 10 1 6 4 5 8 7 18 1 2h-28v-7l4-11 1-2h-3l-1 2-19-1h-42v-2l24-4 22-6z" fill="#718EC8"/>
<path transform="translate(717,1328)" d="m0 0 7 6 12 13 28 28 1 5h-6l-14-12-22-22-4-5v-2l-3 1-1 2h-2l-2 4-7 6-1 2h-2l-2 4-22 22h-1v-10l2-4v3h2l2-5 7-8h2l2-4h2l2-4h2l2-4h2l2-4 7-6 3-3h2z" fill="#6886C2"/>
<path transform="translate(1143,1658)" d="m0 0h10l-2 4v9l3 7 26 1 3 2-6 2 2 13 3 4 4 2-23 1-10 1v11l2 2v4l2 1-1 1-7-1v-10l-3-8-1-1h-26l-8 1v16l5 1 26 1-4 3v11l2 7-5 1-3-3-2-13-2-4-18-1-4-1v-9l-1-10h-32l1-2 18-1-1-18-5-1v-1h15l-3 2-2 1v14l3 3h33l1-1-1-17-5-1v-1h13l-3 2v10l3 7 2 1h32v-7l-2-10-6-2-18-1-2-17-1-3z" fill="#536FA9"/>
<path transform="translate(1314,1095)" d="m0 0h2l2 4 5 5 11 16 7 10 6 10v2l3 1h-27l2-1-8-16-8-13-4-10 1-3h2v-2h2v-2z" fill="#292A92"/>
<path transform="translate(766,1703)" d="m0 0h38l4 1-1 7-3 9-1 1h-44l-1-2 6-15z" fill="#728FC9"/>
<path transform="translate(1336,1703)" d="m0 0h37l4 5 4 8-1 4-19 1h-24l-4-2v-15z" fill="#728FC9"/>
<path transform="translate(985,1702)" d="m0 0h33l4 2-1 17-3 1h-34l-3-2 1-17z" fill="#6F8DC7"/>
<path transform="translate(1034,1702)" d="m0 0h23l5 1 2 9-1 9-1 1h-28l-9-1-2-9 1-8z" fill="#708DC8"/>
<path transform="translate(988,1680)" d="m0 0 22 2v18l-1 1h-36l-2-5 1-14 1-1z" fill="#708DC8"/>
<path transform="translate(901,1702)" d="m0 0h30l2 3v11l-1 5-6 1h-30l-4-2 2-1 2-12 2-4z" fill="#708DC8"/>
<path transform="translate(923,1723)" d="m0 0h25l8 1 1 4-1 14-2 1-16 1h-15l-5-1 2-16 1-3z" fill="#718EC8"/>
<path transform="translate(970,1723)" d="m0 0h26l3 2v12l-3 5-3 1-15 1-15-1-1-1-1-10 2-7z" fill="#718EC8"/>
<path transform="translate(891,1723)" d="m0 0h20l2 3v9l-2 7-2 1h-34l-1-2 5-16 1-1z" fill="#718EC8"/>
<path transform="translate(947,1702)" d="m0 0h30l1 1 1 15-2 4h-29l-10-1 2-1v-6l3-1 3-6z" fill="#708DC8"/>
<path transform="translate(1085,823)" d="m0 0 2 1v7l-6 21-9 25-8 17-9 14-8 11-9 10-9 9-13 9-5 3-10 3-4-1 2-1v-2l12-5 11-7 14-12 5-7h2l2-5 7-10 9-16 8-17 7-19 7-25h2z" fill="#521A2E"/>
<path transform="translate(974,1659)" d="m0 0 12 1 4 3 1 9-2 7h-35l-1-1v-8l2-7 3-1 1-2z" fill="#718EC8"/>
<path transform="translate(1016,1682)" d="m0 0h32l2 2v14l-2 3h-33l-1-4v-12z" fill="#718EC8"/>
<path transform="translate(1009,1723)" d="m0 0h16l15 1 2 2 1 11-1 3-5 3h-25l-5-2v-15z" fill="#718EC8"/>
<path transform="translate(1620,1144)" d="m0 0h1v23l-8 175-5 129-2 55-2 18-2-1-1-8 2-18 1-5-1-6 1-9 3-67 2-43 2-56 3-63 2-50 2-49 1-18z" fill="#6A88C5"/>
<path transform="translate(876,1702)" d="m0 0 5 5 5 3 8 1v4h-2l-2 6-2 1h-28l-7-1v-10l3-8z" fill="#708DC8"/>
<path transform="translate(1059,1682)" d="m0 0h29l2 2 1 7v6l-2 3h-34v-13l1-4z" fill="#718EC8"/>
<path transform="translate(1111,1703)" d="m0 0h31l4 4 1 4v8l-1 1-7 1h-17l-11-1-1-4v-12z" fill="#718EC8"/>
<path transform="translate(1068,1703)" d="m0 0h31l5 1 1 13-1 3-11 1h-18l-6-2-1-5z" fill="#718EC8"/>
<path transform="translate(898,1668)" d="m0 0 5 2 1 3 7 3 9 11 7 9-1 4-2 1h-27l-1-5 2-21z" fill="#718EC8"/>
<path transform="translate(1138,1682)" d="m0 0h31l2 2 3 12-1 4h-30l-4-3-2-8v-6z" fill="#728FC9"/>
<path transform="translate(1101,1682)" d="m0 0h27l3 2 1 13-3 3h-27l-5-5-1-7 1-5z" fill="#728FC9"/>
<path transform="translate(1006,1660)" d="m0 0h15l6 2 1 1 1 13-2 2-11 1h-15l-7-2v-10l2-6z" fill="#728FC9"/>
<path transform="translate(1038,1660)" d="m0 0h24l4 1 2 10v6l-1 1-8 1h-14l-10-1-1-4 1-12z" fill="#728FC9"/>
<path transform="translate(1179,1682)" d="m0 0h30l3 3 2 10-1 4-2 1h-24l-3-1v-2l-4-1-2-7v-6z" fill="#728FC9"/>
<path transform="translate(742,725)" d="m0 0 3 3v6l-1 2-2 14v8l3 12 8 16 5 9 1 8-5-2-7-7-4-7-3-8-1-5-1-3-2 3-2-11v-18l2-12h2z" fill="#5571AB"/>
<path transform="translate(997,1129)" d="m0 0 2 1 6-1h12l9 3 8 5 3 4v2h-49l-5-1v-2h2l-1-3 6-3z" fill="#222278"/>
<path transform="translate(1079,1660)" d="m0 0h23l4 3 1 13-2 2-5 1h-15l-9-2-3-7 2-8z" fill="#728FC9"/>
<path transform="translate(1162,1703)" d="m0 0h21l5 2 2 11-1 4-9 1h-13l-9-1-3-4-1-10 1-2z" fill="#728FC9"/>
<path transform="translate(738,1681)" d="m0 0h10l19 2-1 9-5 8-6 1-25-1 3-9z" fill="#718EC8"/>
<path transform="translate(1054,1724)" d="m0 0h28l3 3 1 7-3 5-4 2-14 2-9-1-4-4-1-4 1-9z" fill="#728FC9"/>
<path transform="translate(1158,1660)" d="m0 0h21l5 4 2 6v6l-1 2h-27l-5-5-1-2v-10z" fill="#728FC9"/>
<path transform="translate(667,1793)" d="m0 0h492v1l-489 1-5 2-1 10 2 7h-2l-3-9-1-11z" fill="#4C5281"/>
<path transform="translate(1099,1724)" d="m0 0h26l4 4v8l-3 5-11 1h-14l-3-1-2-3-1-11z" fill="#728FC9"/>
<path transform="translate(1117,1660)" d="m0 0h22l6 3 1 11-1 4-13 1-12-1-5-3-2-3v-10z" fill="#728FC9"/>
<path transform="translate(1144,1724)" d="m0 0h24l3 1 2 6v8l-7 3h-13l-9-1-4-4-1-10h2v-2z" fill="#728FC9"/>
<path transform="translate(730,1703)" d="m0 0h21l5 2-4 13-3 3h-31l2-6 6-10z" fill="#728FC9"/>
<path transform="translate(1333,1682)" d="m0 0h24l5 4 4 7 1 3-1 3-15 1h-18l-1-17z" fill="#718EC8"/>
<path transform="translate(721,1724)" d="m0 0h11l10 2 1 1-1 7-2 5-5 2-7 1h-20l-2-1 1-5 6-9 2-2z" fill="#728FC9"/>
<path transform="translate(1189,1724)" d="m0 0h19l6 3 1 1v13l-2 1h-17l-9-2-3-4-1-9 1-2z" fill="#728FC9"/>
<path transform="translate(1187,1639)" d="m0 0h25l3 2 1 5v9l-1 1h-27l-3-7-1-6 1-3z" fill="#728FC9"/>
<path transform="translate(1367,1724)" d="m0 0h20l7 9 2 4v3l-2 1h-24l-3-2v-2l-4-2v-2h-2v-6h2v-2z" fill="#728FC9"/>
<path transform="translate(1195,1660)" d="m0 0h23l1 5v11l-1 3-22-1-4-6-1-9z" fill="#728FC9"/>
<path transform="translate(715,1268)" d="m0 0 4 2 7 5 7 8 25 25 2 6h-3l-4-1-5-5-1-4-10-11-4-3v-2h-2l-5-5-5-6-5-1-2-1-1 6-16 14-4 1-2 4-2 5h-1v-10l3 1 2-4 18-20z" fill="#728FC9"/>
<path transform="translate(870,1746)" d="m0 0h31l1 4-1 7-2 2-17 1h-17l-1-5 2-5h2z" fill="#718EC8"/>
<path transform="translate(961,1746)" d="m0 0h20l4 4v10l-14 1h-18l-2-2v-11l1-1z" fill="#718EC8"/>
<path transform="translate(748,1746)" d="m0 0h23l5 1 1 7-3 5-31 1-5-1 1-7 5-5z" fill="#728FC9"/>
<path transform="translate(1037,1746)" d="m0 0h29l2 1v10l-2 2-19 1h-13v-10l1-3z" fill="#718EC8"/>
<path transform="translate(803,1328)" d="m0 0h3v2l4 2 9 10 27 27v2l4 1-1 5-7-6-33-33-1-2-6 1-17 17-5 4-3 6-5 4-2-1-3 6-4-1-1-2h3l2-5 16-15 17-17 2-1z" fill="#6987C4"/>
<path transform="translate(803,1264)" d="m0 0 4 1 8 7 10 9 15 16 12 10v8l-18-18-7-6-7-8-11-11-4-3h-2l-7 8-13 13h-2l-2 4h-2v2l-7 6-2-3 6-7 8-7 20-20z" fill="#C4D0EF"/>
<path transform="translate(879,1723)" d="m0 0h12v1l-11 1-5 16v1h36v-6l1-4v-8l3 1 1 5-3 13h-3v2l7-1 1-11 2-3-1 10-1 3h22l16-1v-18l3 1-1 18-12 2v1l-32 1-4 2-2 10h-1v-12l2-3-4 2-3 13-1 1h-19v-1l17-1 1-1 1-11-8 1h-23l-3 3 1-4 5-2-1-3 5-17z" fill="#6584C2"/>
<path transform="translate(833,1746)" d="m0 0h19l7 1 1 4-4 6 2 1-1 1-21 2h-10l-1-7 2-6z" fill="#718EC8"/>
<path transform="translate(718,1335)" d="m0 0 7 6 31 31 6 5 1 3-5-1-11-9-24-24-4-5v-2l-3 1-1 2h-2l-2 4-7 6-1 2h-2l-2 4-22 22-1-2 1-5 3-1 2-3h2l2-4 15-16h2l2-4 6-3 3-4z" fill="#C1CDED"/>
<path transform="translate(918,1640)" d="m0 0 5 2 10 8 9 4 8 3 9 1v1h-7l-1 16-2 6-3 1-1 3-7-15-8-15-9-11z" fill="#708DC8"/>
<path transform="translate(867,1681)" d="m0 0 2 3 6 15 1 2h-28v-7l4-11 2-1h9l4 1z" fill="#718EC8"/>
<path transform="translate(795,646)" d="m0 0h1v5l-15 15h-2l-1 4h-2l-1 8-4 8-3 2-4-1v-14l3-7 5-2v-2l5-5 3-1v-2l10-6z" fill="#7B0B0D"/>
<path transform="translate(1e3 1746)" d="m0 0h18l4 1-1 9-3 3-17 1h-11l-1-5v-7l1-1z" fill="#718EC8"/>
<path transform="translate(1101,711)" d="m0 0h1l-1 30-1 5-1 17-4 34-3 13-4 18-2-4-2 2 1-9 5-27 3-26 1-13 2 2 1-1 1-18 1-5 1-14z" fill="#2B2A79"/>
<path transform="translate(1120,1746)" d="m0 0h26l5 5v7l-1 1h-29l-2-1-1-10z" fill="#728FC9"/>
<path transform="translate(791,1747)" d="m0 0h24l1 1v8l-2 3-9 1h-21l-1-1v-7l4-4z" fill="#728FC9"/>
<path transform="translate(960,1657)" d="m0 0h69l5 1v20l4 2h-9l-1-9-1-8-6-2h-15l-10 1-1 5v10l21 2v1l-7 1v1l-16-1v-3-12l2-7h-5l-1 4-3-2-12-1h-15l-1 3-1-4z" fill="#6584C2"/>
<path transform="translate(715,1265)" d="m0 0 5 1 2 1v2l4 2 8 7 23 23 2 3 6-1v5l-4 3-3-1-3-4v-2l-4-2-30-30-6-4-2 4-17 17-5 7-2-1 3-7 11-12 10-10z" fill="#BAC8EA"/>
<path transform="translate(1179,1745)" d="m0 0 10 2 3 4v7l-7 1h-20l-4-2-1-2v-8l2-1z" fill="#728FC9"/>
<path transform="translate(1085,1746)" d="m0 0h20l2 2 1 7-2 4h-28l-2-4v-7l1-1z" fill="#728FC9"/>
<path transform="translate(1029,1636)" d="m0 0h70l71 1 8 1 1 6-5-4-34-1h-39l-38 1-22-1h-88v-2z" fill="#6584C2"/>
<path transform="translate(1069,1657)" d="m0 0h45l-1 3h-2v10l1 7 6 2v1h-10l-3-17-3-2h-23l-4 1-1 8 2 6 3 2v2h-12l2-1-2-20z" fill="#6584C2"/>
<path transform="translate(804,1325)" d="m0 0 4 1v2l4 2 16 16 6 5 4 5 5 5 7 8v3l-4-1-7-8-33-33v-2h-3l-1 4 2 1-5 2-25 25-8 6 1-4z" fill="#C9D3F1"/>
<path transform="translate(490,918)" d="m0 0 5 1-1 5-12 13-10 10-5-2-9-8-4-6v-2l5-1 8 7 5 1 16-16z" fill="#FBFCFE"/>
<path transform="translate(712,1746)" d="m0 0 15 1 4 2-1 6-3 3-25 2-5-1v-6l1-2h2v-3l2-1z" fill="#728FC9"/>
<path transform="translate(952,1659)" d="m0 0h5v4l-2 1-1 6v8h35l1-11v-8h5l-1 7v12l2 2-8 1-15 1-1 14 1 5h12v2h-3v9l-1 9h-2l-1-6-1-12-29-1v-1h21v-19l-19-2 1-17z" fill="#516DA7"/>
<path transform="translate(803,1273)" d="m0 0 5 1 7 8 26 26 5 4 3 4 3 2-1 2-5-1-13-12-23-23-3-4-4 1-8 8h-2l-2 4h-2l-1 3-5 5h-2l-2 4-12 12h-2l-1 2v-3l8-7 7-7 1-2h2l2-4 7-6 5-5 5-6z" fill="#BFCBEC"/>
<path transform="translate(866,842)" d="m0 0h40l6 4 3 6v6l-3 5-7 4h-36v-1l15-1 2-2h13l5-1 1-11 1-2 4 1-2-5h-4v2l-14-1-6-2-18-1z" fill="#5672AC"/>
<path transform="translate(1099,690)" d="m0 0h2l1 5-2 34-1 5-1 18-1 1-1 9h-1l-1-47-2-16 1-7 5-1z" fill="#5B0F15"/>
<path transform="translate(1063,1718)" d="m0 0 1 4h3l1-3 4 2 28 1-3 2h-3v11l1 9h-7v-13l-1-7h-34l-3 3v8l1 4-1 5-5-1-1-3v-14l-3-2-15-1 1-2h35z" fill="#5470AA"/>
<path transform="translate(714,1275)" d="m0 0 7 1 6 7 4 3v2h2l5 5 11 12 1 4 4 4 4 1 4 3v2l-5-1-8-7-24-24-4-5v-2l-5-1-7 8-15 15-4 5h-2l2-7 5-5 9-7 8-8 2-1z" fill="#BCC9EB"/>
<path transform="translate(1198,1704)" d="m0 0h18l1 13-2 4h-8l-6-2v-2h-2l-2-4v-8z" fill="#728FC9"/>
<path transform="translate(1335,1660)" d="m0 0h7l6 5 3 5v2h2l1 3-2 3h-12l-7-1-1-5v-9z" fill="#728FC9"/>
<path transform="translate(765,1702)" d="m0 0h40l5 1-1 8-3 10-1 1 19 1v1l-69 1 2-8 5-12zm1 1-3 3-5 14 1 1h44l3-5 2-8v-4l-4-1z" fill="#6584C2"/>
<path transform="translate(869,1724)" d="m0 0h3v8l-3 10-3 2-5 1 2 4-2 9v2l-15 1-1-2 12-1v-4l2-3v-3l-14-1h-12l-5 1-2 6v6h-3v-9h2l2-5 5-1-3-2 1-2 1 1h32l1-5 3-1 2-10z" fill="#6584C2"/>
<path transform="translate(815,1675)" d="m0 0 4 1 6 2 26 1h12l3-1 1 5h-14v-2h-3l-1 2-19-1h-42v-2l24-4z" fill="#6483C1"/>
<path transform="translate(1362,1634)" d="m0 0h137l-4 2h-102v2h-11v-2h-14l-2 1 1 4-4-4z" fill="#CBD5F2"/>
<path transform="translate(933,1707)" d="m0 0 7 7v6l21 2v2h-40l-2 9-1 12h-8v-2h3l2-15v-3l2-1v-2l15-1v-12z" fill="#526DA7"/>
<path transform="translate(719,1331)" d="m0 0 4 2 14 15 27 27 1 5-3-1v-2l-4-2v-2l-4-2-34-34z" fill="#6B89C5"/>
<path transform="translate(539,1672)" d="m0 0 20 2 43 4 32 2 10 1 2 4-1 29h-1l-1-30-1-1-37-2-34-3-29-4z" fill="#55699F"/>
<path transform="translate(804,1270)" d="m0 0 5 1 18 18 5 6 8 7 11 11 1-6h1v10l-5-1-5-6-8-7-27-27-1-3-4-2z" fill="#6583BF"/>
<path transform="translate(1349,1745)" d="m0 0 6 2 3 6-1 3-4 1h-9l-11-4v-6z" fill="#728FC9"/>
<path transform="translate(1389,1746)" d="m0 0 9 1 5 3v2h2l-1 4-6 1h-9l-10-2-2-2 1-4 1-1z" fill="#728FC9"/>
<path transform="translate(806,1330)" d="m0 0 4 2 9 10 27 27v2l4 1-1 5-7-6-33-33-3-6z" fill="#6987C4"/>
<path transform="translate(996,950)" d="m0 0 3 1-1 1 3 2-11 3-11 1h-16l-17-1v-1l14-1-7-1v-1l31-1z" fill="#35377F"/>
<path transform="translate(1338,1726)" d="m0 0 5 1 4 5 1 8h-2v2l-10-1-3-3v-11z" fill="#728FC9"/>
<path transform="translate(1110,1716)" d="m0 0 1 4 5 1 26 1-4 3v11l2 7-5 1-3-3-2-13-2-4-18-1-1-2z" fill="#5470AA"/>
<path transform="translate(596,1755)" d="m0 0 5 1 2 6 1 5v7l-2 2-5-1-4-10v-9z" fill="#5470AA"/>
<path transform="translate(926,1697)" d="m0 0 4 4-1 2h-28l-3 1-2 6-1 9-1 1 2 1 21 1v2l2 1h-6l-2-1-25-1 4-2 2-6 2-4-3 1-1-3 5-9h31z" fill="#5571AC"/>
<path transform="translate(1083,1702)" d="m0 0h19l3 1 2 10v7l-1 2 19 1v1l-28 1 1-2-26-1-5-3v-15h1l2 15 5 1h29v-16l-21-1z" fill="#6584C2"/>
<path transform="translate(746,1740)" d="m0 0 1 2h14l24 1-1 2-3 1-2 8-3-1v-6h-28l-6 1 2-3h3v-2h-2z" fill="#6584C2"/>
<path transform="translate(850,1681)" d="m0 0h3l-3 9-2 11h28v2l-20 1-4 16-3 1-1-3 3-15-4-1-1-1v-8l3-10z" fill="#526EA8"/>
<path transform="translate(1347,1725)" d="m0 0h5l5 10 3 2 2 5 2 1 1 7-2 2v-2l-5-2v-2h-2l-2-2h-1l-3-9-2-4z" fill="#5470AA"/>
<path transform="translate(778,827)" d="m0 0 4 5 1 5h2l12 23-4 2-3-3-7-14-5-13z" fill="#432450"/>
<path transform="translate(748,1677)" d="m0 0 28 3 3 2-4 2-1 3-1-2 2-4h-4l-3 11-5 8h-2l2-5 3-6 1-6-19-1-10-1v-1h10z" fill="#6382C0"/>
<path transform="translate(715,1265)" d="m0 0 5 1 2 1-1 2 1 1 2 3-5-2-4-3-2 4-17 17-5 7-2-1 3-7 11-12 10-10z" fill="#C4D0EF"/>
<path transform="translate(1158,1722)" d="m0 0h28l-3 2h-3l2 14 2 5-4 1-3-2-3-14-1-3-2-1-13-1z" fill="#5470AA"/>
<path transform="translate(1023,1712)" d="m0 0h1l1 9 2 1-1 1-17 1-2 1-1 6v13l-5-1v-20l1-1 19-1v-8z" fill="#4E69A2"/>
<path transform="translate(586,1753)" d="m0 0h3v2l-5 4-5 3-1 2-3 1-4 8-4 2-5-1 4-6 7-8z" fill="#7B96CD"/>
<path transform="translate(845,1697)" d="m0 0 2 4v1l-22 1-10 1-5 10-2 7 16 1v1h-20l5-15 1-5h-5v-2h40z" fill="#5470AA"/>
<path transform="translate(1205,1747)" d="m0 0h9l2 1 1 8-2 2h-8l-3-2-1-5z" fill="#728FC9"/>
<path transform="translate(739,1700)" d="m0 0h22l-4 1v2l2 1-3 12-5 6-4-1 4-3 4-12-5-2-12-1z" fill="#6584C2"/>
<path transform="translate(1086,1680)" d="m0 0h15l-3 2-2 1v14l3 3 3 2-29 1 1-2 18-1-1-18-5-1z" fill="#536FA8"/>
<path transform="translate(509,896)" d="m0 0h5l1 5-9 10-4 1-2-3 1-4z" fill="#FBFCFE"/>
<path transform="translate(517,938)" d="m0 0h14l1 1v6l-6 1h-10l-1-1v-5z" fill="#FBFCFE"/>
<path transform="translate(898,1668)" d="m0 0 5 2 1 3 7 3 5 6-1 2-4-2h-10l-2 1z" fill="#6584C2"/>
<path transform="translate(789,543)" d="m0 0h2l-1 4-9 13-10 19-7 19-1-4 6-17 4-9 2-4h2l2-5 3-5 3-8z" fill="#5B0809"/>
<path transform="translate(1127,1680)" d="m0 0h13l-3 2v10l3 7 5 2v1h-15l3-3-1-17-5-1z" fill="#526EA8"/>
<path transform="translate(501,973)" d="m0 0 5 1 9 8-1 5-4 1-8-8-2-3z" fill="#FBFCFE"/>
<path transform="translate(434,973)" d="m0 0 4 1-1 6-10 8-4-4 3-5 6-5z" fill="#FBFCFE"/>
<path transform="translate(735,1349)" d="m0 0 7 6 9 9 5 3 7 6 2 7-3-1v-2l-4-2v-2l-4-2-19-19z" fill="#6F8CC7"/>
<path transform="translate(424,897)" d="m0 0 7 1 7 7v5l-3 1-8-6-4-5z" fill="#FBFCFE"/>
<path transform="translate(469,987)" d="m0 0 4 1v12l-3 5-4-1v-12l1-4z" fill="#FBFCFE"/>
<path transform="translate(695,1351)" d="m0 0v3l-4 7-7 8-4 4h-3v5h-1v-8l2-4v3h2l2-5 7-8h2l2-4z" fill="#6B88C2"/>
<path transform="translate(933,1707)" d="m0 0 7 7v6l8 1v1h-22v-1h6v-12z" fill="#6483C1"/>
<path transform="translate(1060,1701)" d="m0 0h14l-1 2-5 1-1 18h-3l-2-19h-5z" fill="#516CA6"/>
<path transform="translate(409,938)" d="m0 0h10l4 2-1 4-2 1h-12l-1-5z" fill="#FBFCFE"/>
<path transform="translate(711,1281)" d="m0 0h2l-2 4-17 17-4 5h-2l2-7 5-5 9-7z" fill="#B7C5E8"/>
<path transform="translate(1105,1658)" d="m0 0h9l-1 2h-2v10l1 7 6 2v1h-10l-2-18z" fill="#5470AA"/>
<path transform="translate(832,1297)" d="m0 0 6 3 13 13 1-6h1v10l-5-1-5-6-8-7-3-3z" fill="#6B89C5"/>
<path transform="translate(1143,1658)" d="m0 0h10l-2 4v9l3 7 1 2h-7l-2-17-1-3z" fill="#536FA9"/>
<path transform="translate(1067,1659)" d="m0 0h7l-1 2v14l3 3 3 2h-12l2-1z" fill="#526EA7"/>
<path transform="translate(960,1657)" d="m0 0h32l1 2h-3l-1 4-3-2-12-1h-15l-1 3-1-4z" fill="#6584C2"/>
<path transform="translate(713,1275)" d="m0 0 1 4-13 13-6 4-2-1 7-9 4-4 5-3h2v-2h2z" fill="#728FC9"/>
<path transform="translate(713,1273)" d="m0 0h2v2h-2v2h-2v2l-9 6-7 8-6 12h-1v-10l3 1 2-4 9-10 7-8z" fill="#6886C3"/>
<path transform="translate(824,1350)" d="m0 0 7 6 9 9 5 3 1 3 4 1-1 5-7-6-19-19z" fill="#6E8BC6"/>
<path transform="translate(468,880)" d="m0 0 4 1v14l-5 1-1-1v-12z" fill="#FBFCFE"/>
<path transform="translate(987,1111)" d="m0 0h2l-1 6-1 2h-2v2h-2l1 3-1 3-2 1-3 5h-2l-1 3-4-1 9-12z" fill="#2B2E7E"/>
<path transform="translate(778,1358)" d="m0 0 1 3-6 7-3-1-3 6-4-1-1-2h3l2-5 5-4 4-2z" fill="#718EC8"/>
<path transform="translate(801,1678)" d="m0 0 7 1 14 1v1l-10 1h-24v-2z" fill="#6685C2"/>
<path transform="translate(1029,1659)" d="m0 0h5v19l4 2h-9z" fill="#516DA7"/>
<path transform="translate(990,1659)" d="m0 0h5l-1 7v12l2 2-7 1 1-14z" fill="#4B669E"/>
<path transform="translate(926,1697)" d="m0 0 4 4-1 2h-28l-3 1-1 3-3 1-1-5 2-3h31z" fill="#4F6BA4"/>
<path transform="translate(803,1328)" d="m0 0h3l2 7-7 3-4 4-6 2 2-4 7-7 2-1z" fill="#6381BE"/>
<path transform="translate(852,1715)" d="m0 0h1v6h7l-2 3h-21l-2 5-2 2 1-6 5-3 7-1 1-3 3 2h2z" fill="#6483C1"/>
<path transform="translate(1101,711)" d="m0 0h1l-1 30-2 11h-1v-18l1-5 1-14z" fill="#222278"/>
<path transform="translate(982,1701)" d="m0 0h3v2h-3v9l-1 9h-2l-1-6v-13z" fill="#496299"/>
<path transform="translate(1047,1680)" d="m0 0h14l-4 2h-2l-1 15-3 3-1-18z" fill="#536FA9"/>
<path transform="translate(1023,1712)" d="m0 0h1l1 9 2 1-1 1-17 1-4 3v-3l-2-2 18-1v-8z" fill="#506CA5"/>
<path transform="translate(745,1737)" d="m0 0 1 3-1 3h2v2l-5 2-3 4h-3v-7l6-4z" fill="#5470AA"/>
<path transform="translate(626,1748)" d="m0 0 7 5 5 3-1 3-3 1-7-4-1-2z" fill="#FBFCFE"/>
<path transform="translate(757,1714)" d="m0 0 1 3-1 6-5 4-2 3h-2v-6l-2-2 6-2z" fill="#5470AA"/>
<path transform="translate(751,754)" d="m0 0h2v10l-2 3-4-1-1-9z" fill="#4C5281"/>
<path transform="translate(1332,1646)" d="m0 0 3 1 4 6-1 4h-6z" fill="#728FC9"/>
<path transform="translate(640,1763)" d="m0 0 4 6 6-1 3-2-2 5-2 4-5-1-4-5z" fill="#4B5D92"/>
<path transform="translate(744,1303)" d="m0 0 4 1 2 5 4 4 4 1 4 3v2l-5-1-8-7-5-5z" fill="#AEBEE4"/>
<path transform="translate(609,1753)" d="m0 0 10 1 10 4 1 2-8-1-6-2-7-2z" fill="#7894CC"/>
<path transform="translate(782,1752)" d="m0 0h1l1 7h29l-4 2h-27l-1-1v-6z" fill="#6584C2"/>
<path transform="translate(763,739)" d="m0 0 2 1 1 4-1 3-1 4h-2l-2-2-1-5 2-4z" fill="#4C5281"/>
<path transform="translate(850,1681)" d="m0 0h3l-3 9-2 12-2-1v-8l3-10z" fill="#4F6AA3"/>
<path transform="translate(802,1265)" d="m0 0m-1 1m-1 1m-2 1 2 1-2 1zm-1 2m-1 1m-1 1m-1 1m-1 1m-1 1m-1 1m-1 1m-1 1m-1 1m-1 1m-1 1m-1 1m-1 1m-1 1m-1 1m-1 1m-1 1m-1 1m-1 1m-1 1m-1 1m-2 1 2 1-4 5-2 4-2-3z" fill="#BAC7EA"/>
<path transform="translate(750,801)" d="m0 0 4 2 7 8 1 2-5-1-5-4-3-4z" fill="#485086"/>
<path transform="translate(865,1678)" d="m0 0 2 1v4h-14l-1-3 1-1h10z" fill="#6483C1"/>
<path transform="translate(918,1640)" d="m0 0 5 2 5 4v3l3 2 3 8h-2l-6-9-8-9z" fill="#546EA6"/>
<path transform="translate(898,1668)" d="m0 0 5 2 1 3 4 1-1 3-7-1-2-5z" fill="#708EC8"/>
<path transform="translate(952,1659)" d="m0 0h5v4l-2 1-2 7h-2v-8z" fill="#4E69A2"/>
<path transform="translate(695,1351)" d="m0 0v3l-2 4-6 4-5 5v-3l7-8h2l2-4z" fill="#5D7AB5"/>
<path transform="translate(978,1718)" d="m0 0 1 3 3-1 2 1 18 1-1 2-26-1z" fill="#526EA8"/>
<path transform="translate(748,1677)" d="m0 0 19 2 1 2h-16l-4-1z" fill="#5571AA"/>
<path transform="translate(790,849)" d="m0 0 4 5 3 7-5 1-2-5z" fill="#402758"/>
<path transform="translate(944,1747)" d="m0 0h1v13h-13v-1l7-1 3-3z" fill="#6584C2"/>
<path transform="translate(1052,1693)" d="m0 0 2 4 1 3 5 1v1h-19v-1l11-1z" fill="#4B659E"/>
<path transform="translate(823,1287)" d="m0 0 4 2 5 6 4 3-1 2-2-2h-3l-6-7 1-1-2-1z" fill="#617FBA"/>
<path transform="translate(778,827)" d="m0 0 4 5 1 5h2l-2 5-3-4-2-6z" fill="#2F2468"/>
<path transform="translate(960,1657)" d="m0 0 15 1-1 2h-15l-1 3-1-4z" fill="#6482C0"/>
<path transform="translate(695,1289)" d="m0 0h2l-8 16h-1v-10l3 1 2-4z" fill="#617BB5"/>
<path transform="translate(807,1677)" d="m0 0h9l8 2v1h-16l-2-2z" fill="#5470AA"/>
<path transform="translate(1604,1527)" d="m0 0h1l-1 17-2-1-1-8 2-7z" fill="#7590C9"/>
<path transform="translate(1086,812)" d="m0 0h1l2 7-1 9-2-4-2 2 1-9z" fill="#353A84"/>
<path transform="translate(641,1409)" d="m0 0 2 1v17h-1l-1-11h-2l-3 2 2-5z" fill="#9FB2DC"/>
<path transform="translate(806,1330)" d="m0 0 4 2 6 10-1 2-7-8z" fill="#6380BC"/>
<path transform="translate(832,1297)" d="m0 0 7 6 7 7-1 2-12-11z" fill="#708EC8"/>
<path transform="translate(736,721)" d="m0 0 1 4 3-1 2-3-1 8-3 6h-1z" fill="#4C5788"/>
<path transform="translate(935,1710)" d="m0 0 5 4v5h-5l-1-8z" fill="#506BA4"/>
<path transform="translate(717,1328)" d="m0 0 3 3-1 2 2 1-2 2-5 1-2-1v-2l3-3h2z" fill="#708EC8"/>
<path transform="translate(970,1680)" d="m0 0h3l-1 21h-2z" fill="#466198"/>
<path transform="translate(941,1674)" d="m0 0 4 3 5 1-1 3-3 1-1 3-4-9z" fill="#6382BF"/>
<path transform="translate(719,1331)" d="m0 0 4 2 4 4-1 2-3-2 5 5-1 2-7-7z" fill="#6887C3"/>
<path transform="translate(784,839)" d="m0 0h2l2 8v5l-4-4-1-7z" fill="#51162A"/>
<path transform="translate(803,1328)" d="m0 0h3l2 7-6 1-2-1v-2l2-1z" fill="#7390C9"/>
<path transform="translate(815,1280)" d="m0 0 7 6 1 3 3 1-3 1-9-9z" fill="#708DC8"/>
<path transform="translate(1195,1744)" d="m0 0 4 1-1 5-2 1-3-3v-3z" fill="#5470AA"/>
<path transform="translate(852,1715)" d="m0 0h1v6h7v1h-15l2-4 3 2h2z" fill="#6584C2"/>
<path transform="translate(1024,1704)" d="m0 0h2v16l2 1h-3l-2-9z" fill="#6584C2"/>
<path transform="translate(713,1337)" d="m0 0 2 2-3 1-2 4-5 1 4-6z" fill="#728FC9"/>
<path transform="translate(710,1335)" d="m0 0h4l-1 3-8 5-2 1 2-4zm-9 9 2 1z" fill="#6987C4"/>
<path transform="translate(811,1274)" d="m0 0 7 6 6 7-4-2-9-8z" fill="#6885C0"/>
<path transform="translate(909,1676)" d="m0 0 4 2 3 4-1 2-6-4-4-2z" fill="#5B79B4"/>
<path transform="translate(762,689)" d="m0 0 1 2 13 2v1l-8 1-6-3z" fill="#222278"/>
</svg>
