<?xml version="1.0" standalone="no"?>
<!DOCTYPE svg PUBLIC "-//W3C//DTD SVG 20010904//EN"
 "http://www.w3.org/TR/2001/REC-SVG-20010904/DTD/svg10.dtd">
<svg version="1.0" xmlns="http://www.w3.org/2000/svg"
 width="512.000000pt" height="512.000000pt" viewBox="0 0 512.000000 512.000000"
 preserveAspectRatio="xMidYMid meet">

<g transform="translate(0.000000,512.000000) scale(0.100000,-0.100000)"
fill="#000000" stroke="none">
<path d="M2471 2089 c-228 -45 -391 -278 -353 -506 23 -139 117 -270 236 -328
l56 -27 0 -251 c0 -233 1 -254 21 -293 38 -79 149 -107 218 -57 57 42 61 64
61 343 l0 255 49 23 c145 66 251 235 251 401 0 120 -41 221 -123 309 -111 116
-256 163 -416 131z"/>
</g>
</svg>
