<?xml version="1.0" standalone="no"?>
<!DOCTYPE svg PUBLIC "-//W3C//DTD SVG 20010904//EN"
 "http://www.w3.org/TR/2001/REC-SVG-20010904/DTD/svg10.dtd">
<svg version="1.0" xmlns="http://www.w3.org/2000/svg"
 width="667.000000pt" height="667.000000pt" viewBox="0 0 667.000000 667.000000"
 preserveAspectRatio="xMidYMid meet">

<g transform="translate(0.000000,667.000000) scale(0.100000,-0.100000)"
fill="#000000" stroke="none">
<path d="M2907 5020 c-91 -27 -118 -41 -212 -116 -91 -72 -134 -123 -175 -209
-57 -120 -65 -169 -62 -405 2 -203 4 -217 27 -267 19 -42 32 -57 60 -69 26
-11 41 -25 51 -52 37 -91 73 -149 131 -212 l63 -68 0 -69 c0 -68 0 -69 -54
-134 l-54 -65 -108 -13 c-335 -39 -543 -119 -663 -257 -129 -146 -286 -486
-435 -940 -85 -258 -216 -718 -216 -755 0 -68 55 -147 136 -194 117 -68 357
-120 658 -141 l99 -7 -7 -149 c-6 -142 -6 -149 15 -178 19 -25 20 -31 8 -47
-9 -11 -10 -14 -1 -9 7 4 12 1 12 -9 0 -9 -4 -14 -8 -11 -5 3 -9 -1 -9 -9 0
-8 4 -12 9 -9 4 3 5 -2 2 -10 -8 -21 -71 -59 -84 -51 -5 3 -10 1 -10 -5 0 -7
-26 -10 -80 -8 -71 3 -83 7 -109 32 -22 21 -29 37 -29 67 -1 37 1 39 16 27 15
-12 16 -11 3 5 -23 28 -36 4 -36 -66 0 -48 5 -69 23 -94 66 -93 289 -78 337
23 8 17 15 37 15 43 0 14 1 14 118 -4 403 -60 1075 -69 1404 -19 36 6 37 5 40
-33 3 -33 8 -41 39 -56 85 -41 171 -51 439 -51 270 0 358 10 439 52 29 15 37
25 39 53 2 25 -3 40 -17 53 -24 22 -129 53 -212 62 -40 4 -59 11 -59 20 0 11
40 14 215 14 l215 0 0 25 0 25 -217 2 -218 3 213 2 c116 2 212 5 212 7 0 2
-72 107 -160 233 l-161 228 398 5 398 5 3 50 c8 153 62 1479 62 1528 l0 57
-152 0 -153 1 -62 127 c-68 140 -150 261 -288 427 -113 135 -309 333 -434 438
l-94 79 -32 -69 c-49 -104 -128 -166 -238 -185 -15 -2 5 -39 111 -198 72 -107
173 -253 225 -325 52 -71 93 -132 92 -133 -2 -2 -92 37 -201 88 -372 173 -443
199 -627 231 -65 11 -69 13 -127 76 -33 36 -60 71 -60 77 0 6 18 21 40 34 93
53 162 176 236 420 2 6 14 12 27 12 28 0 68 41 88 90 19 48 17 184 -4 231 -9
20 -30 48 -46 62 -17 14 -27 27 -22 29 5 2 17 39 26 83 56 275 10 456 -135
530 -72 37 -127 47 -255 51 -66 2 -172 5 -235 8 -97 5 -126 3 -183 -14z m568
-329 c116 -52 178 -217 179 -471 1 -156 -12 -249 -51 -375 -51 -163 -128 -277
-224 -330 -50 -28 -61 -30 -149 -29 -117 2 -200 22 -307 74 -122 60 -246 183
-289 285 l-15 38 39 -31 c52 -42 81 -52 182 -63 186 -21 215 -17 208 32 l-3
24 -145 0 c-164 0 -181 5 -244 75 l-37 41 19 27 c32 46 42 91 42 191 0 109 27
246 63 325 44 94 104 147 202 179 70 22 86 24 300 25 165 1 195 -1 230 -17z
m-560 -1144 c119 -59 319 -94 408 -69 l37 10 0 -167 c0 -93 -5 -192 -10 -222
-12 -63 -57 -163 -96 -214 l-27 -36 -76 3 -75 3 -78 125 c-127 205 -188 382
-188 547 l0 84 28 -19 c15 -11 50 -31 77 -45z m820 -1008 c133 -63 206 -212
171 -350 -52 -203 -263 -296 -449 -197 -166 89 -218 300 -109 449 38 51 100
97 155 115 61 20 171 12 232 -17z m-1265 -164 c35 -36 69 -65 74 -65 5 0 37
30 72 66 35 37 69 64 77 62 26 -5 157 -139 157 -159 0 -10 -4 -19 -9 -19 -4 0
-40 31 -79 70 l-70 69 -70 -69 c-38 -39 -73 -70 -78 -70 -5 0 -41 31 -79 70
l-69 70 -49 -48 c-48 -46 -48 -47 -41 -17 7 31 70 105 89 105 6 0 40 -29 75
-65z m1650 -12 c0 -29 15 -22 23 12 3 13 5 10 6 -11 1 -34 -19 -50 -38 -31
-14 14 -15 57 -1 57 6 0 10 -12 10 -27z m86 16 c4 -8 9 -7 15 2 6 9 9 0 9 -25
0 -30 -3 -37 -11 -29 -6 6 -18 9 -25 6 -10 -4 -14 4 -14 26 0 31 13 41 26 20z
m74 -25 c0 -21 -4 -33 -10 -29 -5 3 -10 19 -10 36 0 16 5 29 10 29 6 0 10 -16
10 -36z m60 19 c0 9 5 17 11 17 10 0 5 -30 -12 -60 -6 -12 -10 -9 -18 13 -15
40 -13 56 4 33 13 -17 15 -18 15 -3z m76 10 c-15 -4 -16 -7 -5 -14 12 -8 12
-11 -1 -19 -10 -6 -11 -10 -2 -10 6 0 12 -4 12 -10 0 -5 -7 -10 -15 -10 -10 0
-15 11 -15 35 0 30 3 35 23 34 19 -1 19 -2 3 -6z m82 -33 c2 -33 1 -34 -13
-16 -14 18 -15 18 -15 2 0 -9 -4 -14 -10 -11 -5 3 -10 20 -10 36 0 26 3 30 23
27 17 -2 23 -10 25 -38z m72 29 c0 -5 -5 -7 -11 -4 -6 4 -5 -2 3 -14 14 -23
-1 -49 -21 -37 -18 11 -13 26 7 19 15 -5 14 -4 -2 9 -10 8 -16 20 -12 26 9 15
36 16 36 1z m49 -26 c-1 -33 -2 -35 -8 -13 -4 14 -6 31 -3 38 8 22 12 13 11
-25z m79 6 c2 -17 -3 -29 -13 -33 -25 -9 -35 1 -35 35 0 26 3 30 23 27 15 -2
23 -11 25 -29z m74 -4 c7 -29 0 -52 -9 -27 -4 10 -8 10 -19 1 -16 -13 -18 -1
-8 39 8 30 26 23 36 -13z m73 0 c0 -20 -6 -31 -17 -33 -15 -3 -18 4 -18 33 0
29 3 36 18 33 11 -2 17 -13 17 -33z m-753 -72 c10 -9 18 -22 18 -29 0 -23 -19
-25 -37 -4 -20 23 -43 26 -61 8 -16 -16 -16 -90 0 -106 18 -18 46 -14 58 8 14
26 40 26 40 1 0 -26 -37 -51 -76 -51 -44 0 -74 38 -74 95 0 59 30 95 77 95 20
0 45 -7 55 -17z m166 5 c-3 -7 -21 -14 -42 -16 -32 -3 -37 -6 -34 -25 2 -17
11 -23 36 -25 46 -5 43 -32 -3 -32 -31 0 -35 -3 -35 -25 0 -22 4 -25 40 -25
29 0 40 -4 40 -15 0 -13 -11 -15 -57 -13 l-58 3 -3 93 -3 92 61 0 c45 0 61 -3
58 -12z m154 -5 c10 -9 18 -22 18 -30 0 -18 -25 -17 -40 2 -16 19 -55 16 -55
-3 0 -8 20 -24 45 -35 50 -24 64 -61 35 -91 -32 -31 -125 -10 -125 30 0 18 24
18 40 -1 7 -8 23 -15 36 -15 37 0 31 35 -8 49 -39 14 -68 39 -68 59 0 46 83
70 122 35z m126 -52 l26 -65 20 55 c27 70 33 79 57 79 17 0 19 -8 19 -96 0
-86 -2 -95 -17 -92 -14 2 -19 16 -23 53 l-5 50 -14 -43 c-16 -46 -37 -70 -50
-56 -5 5 -17 32 -27 59 l-19 50 -3 -50 c-6 -99 -42 -82 -42 20 0 82 8 107 32
103 14 -2 28 -22 46 -67z m287 -13 c16 -46 30 -89 33 -95 7 -21 -27 -15 -40 7
-9 13 -24 20 -44 20 -23 0 -33 -5 -37 -20 -5 -19 -37 -29 -37 -12 0 8 40 128
55 165 4 9 15 17 24 17 13 0 25 -22 46 -82z m185 62 c11 -11 20 -24 20 -30 0
-16 -37 -12 -44 5 -3 8 -17 15 -31 15 -51 0 -60 -113 -10 -126 13 -3 29 -3 34
1 18 10 12 32 -9 38 -35 9 -22 27 20 27 40 0 40 0 40 -40 0 -45 -18 -60 -71
-60 -52 0 -79 33 -79 97 0 65 22 93 75 93 22 0 43 -8 55 -20z m-2535 -110 l69
-70 73 72 73 72 75 -74 c65 -64 93 -110 68 -110 -4 0 -38 30 -75 67 l-68 67
-68 -67 c-37 -37 -72 -67 -78 -67 -5 0 -39 29 -74 65 -35 36 -68 65 -72 65 -4
0 -28 -22 -55 -48 -26 -26 -56 -54 -66 -62 -17 -12 -18 -11 -11 16 7 29 110
142 129 143 6 1 42 -31 80 -69z m-318 -636 c-8 -8 -242 65 -240 74 1 6 35 59
76 119 40 59 91 137 113 173 l39 65 8 -214 c4 -117 6 -215 4 -217z m2293 21
c0 -325 2 -369 17 -391 14 -22 14 -27 2 -35 -11 -7 -9 -9 7 -9 18 0 54 -36 54
-54 0 -3 -21 -7 -47 -9 l-48 -3 54 -2 c38 -1 58 -7 67 -19 26 -35 17 -43 -46
-43 -57 0 -60 1 -60 25 0 14 -6 25 -12 25 -7 1 -90 0 -185 0 -109 0 -174 3
-178 10 -3 5 -22 10 -40 10 -24 0 -38 6 -45 19 -18 34 -11 41 43 43 l52 2 -50
3 c-51 4 -75 21 -75 53 0 12 10 15 47 13 27 -2 49 -7 51 -13 14 -40 17 36 14
365 l-3 375 191 0 190 0 0 -365z m-1651 -178 c11 -2 14 -20 12 -84 l-2 -82
188 -4 c103 -2 310 -5 458 -6 149 -1 317 -5 373 -8 93 -5 105 -8 112 -27 4
-12 5 -24 1 -28 -4 -4 -191 -9 -416 -10 -226 -1 -395 -3 -377 -5 36 -5 37 -7
18 -45 l-15 -28 40 0 c37 0 39 -2 39 -29 0 -26 -4 -30 -32 -34 -25 -3 -22 -4
15 -5 45 -2 47 -3 47 -32 l0 -30 -60 0 c-47 0 -60 3 -60 15 0 8 -5 15 -10 15
-6 0 -13 -7 -16 -15 -5 -11 -21 -15 -60 -15 -45 0 -54 3 -54 18 0 28 21 42 62
42 21 0 38 3 38 8 0 4 -25 5 -55 4 -52 -4 -55 -5 -67 -38 -12 -33 -13 -34 -70
-34 -32 0 -58 2 -58 5 0 25 27 54 54 58 22 3 18 4 -16 5 -27 1 -48 4 -48 6 0
25 23 56 42 58 13 1 -20 4 -72 7 -52 4 -113 4 -135 0 -28 -5 -11 -7 58 -8 53
0 97 -4 97 -8 0 -5 -3 -18 -6 -30 -6 -22 -10 -23 -130 -23 l-125 0 16 30 c14
26 14 30 1 30 -9 0 -22 -13 -31 -30 -14 -27 -20 -30 -65 -30 -54 0 -58 4 -34
38 12 17 26 22 62 24 35 1 39 2 15 5 -27 4 -34 11 -53 56 -46 106 -36 183 30
240 l39 33 118 -3 c65 -2 124 -5 132 -6z m499 -284 c-3 -25 -8 -28 -42 -31
-53 -5 -64 2 -59 32 5 24 10 26 55 26 48 0 49 -1 46 -27z m142 13 c0 -37 -12
-46 -61 -46 -48 0 -49 1 -49 30 0 30 1 30 55 30 41 0 55 -4 55 -14z m125 -16
c0 -23 -3 -25 -50 -25 -47 0 -50 1 -53 28 -3 28 -3 28 50 25 49 -3 53 -5 53
-28z m130 0 c0 -23 -3 -25 -50 -25 -47 0 -50 1 -53 28 -3 28 -3 28 50 25 49
-3 53 -5 53 -28z m135 -1 l0 -30 -52 3 c-49 3 -53 5 -56 31 -3 27 -2 27 52 27
56 0 56 0 56 -31z m128 7 c14 -31 8 -36 -44 -36 -33 0 -46 5 -54 19 -18 34
-12 41 38 41 42 0 50 -3 60 -24z m-590 -73 c-3 -26 -7 -28 -55 -31 l-53 -3 0
30 c0 31 0 31 56 31 54 0 55 0 52 -27z m137 -3 c0 -23 -4 -25 -51 -28 -54 -3
-70 10 -57 43 4 12 18 15 57 13 47 -3 51 -5 51 -28z m135 -1 l0 -30 -52 3
c-49 3 -53 5 -56 31 -3 27 -2 27 52 27 56 0 56 0 56 -31z m138 -1 c3 -28 2
-28 -52 -28 -56 0 -56 0 -56 31 l0 30 53 -3 c48 -3 52 -5 55 -30z m136 16 c14
-38 7 -44 -49 -44 -41 0 -55 4 -55 14 0 8 -3 21 -6 30 -5 13 3 16 49 16 41 0
56 -4 61 -16z m136 -3 c18 -35 12 -41 -44 -41 -40 0 -55 4 -60 16 -14 37 -7
44 44 44 38 0 52 -4 60 -19z m-1520 -56 c0 -2 -5 -16 -12 -30 -10 -22 -17 -25
-65 -25 -57 0 -61 4 -37 38 12 18 25 22 65 22 27 0 49 -2 49 -5z m170 -6 c0
-6 -5 -19 -10 -30 -9 -16 -22 -19 -80 -19 -39 0 -70 2 -70 4 0 3 4 16 10 30 9
25 14 26 80 26 43 0 70 -4 70 -11z m140 7 c0 -3 -4 -16 -10 -30 -9 -24 -15
-26 -65 -26 -30 0 -55 2 -55 4 0 3 4 16 10 30 9 24 15 26 65 26 30 0 55 -2 55
-4z m564 -11 c12 -33 -4 -45 -60 -45 -50 0 -54 2 -54 23 0 33 7 37 61 37 32 0
49 -5 53 -15z m141 -15 c0 -23 -4 -25 -57 -28 -55 -3 -58 -2 -58 21 0 34 8 38
65 35 46 -3 50 -5 50 -28z m143 -2 c3 -28 3 -28 -53 -28 -58 0 -74 12 -61 46
4 11 18 14 58 12 49 -3 53 -5 56 -30z m142 18 c0 -8 3 -21 6 -30 5 -14 -3 -16
-55 -16 l-61 0 0 30 c0 30 1 30 55 30 41 0 55 -4 55 -14z m138 2 c7 -7 12 -20
12 -30 0 -17 -7 -19 -57 -16 -55 3 -58 4 -61 31 -3 26 -2 27 45 27 27 0 54 -5
61 -12z m102 -18 c0 -26 -3 -30 -29 -30 -28 0 -41 14 -41 46 0 9 11 14 35 14
32 0 35 -2 35 -30z m534 8 c9 -12 16 -26 16 -30 0 -5 -38 -8 -85 -8 l-85 0 0
30 0 30 69 0 c61 0 72 -3 85 -22z m-2114 -53 c0 -2 -5 -16 -12 -30 -9 -19 -19
-25 -45 -25 -18 0 -33 -5 -33 -11 0 -6 8 -8 19 -4 22 7 34 -6 25 -29 -5 -12
-20 -16 -65 -16 -32 0 -59 4 -59 9 0 15 31 42 41 36 5 -4 15 -3 21 1 9 6 5 10
-12 14 l-25 6 27 27 c22 21 36 27 73 27 25 0 45 -2 45 -5z m270 -9 c0 -43 -9
-46 -115 -46 -57 0 -106 -4 -109 -8 -3 -5 8 -7 23 -4 31 4 44 -8 35 -32 -5
-12 -20 -16 -65 -16 -32 0 -59 3 -59 8 0 13 15 28 35 36 16 6 17 9 6 16 -12 7
-12 12 3 34 16 25 19 26 131 26 93 0 115 -3 115 -14z m138 -13 c-3 -27 -6 -28
-60 -31 -32 -2 -58 -1 -58 2 0 3 4 16 10 30 8 23 15 26 60 26 50 0 51 -1 48
-27z m152 13 c0 -38 -12 -46 -66 -46 -56 0 -62 6 -44 41 8 15 22 19 60 19 37
0 50 -4 50 -14z m140 -16 c0 -25 -4 -30 -25 -30 -22 0 -24 -3 -18 -30 l6 -30
-57 0 c-49 0 -56 2 -56 20 0 19 10 24 70 33 24 4 24 4 -2 6 -22 1 -28 6 -28
24 0 33 7 37 62 37 47 0 48 -1 48 -30z m148 -2 c3 -28 3 -28 -57 -28 -63 0
-70 5 -50 41 8 16 19 19 57 17 43 -3 47 -5 50 -30z m142 2 c0 -30 -1 -30 -55
-30 -51 0 -55 2 -55 23 0 33 7 37 62 37 47 0 48 -1 48 -30z m148 -2 c3 -28 2
-28 -52 -28 -56 0 -56 0 -56 31 l0 30 53 -3 c48 -3 52 -5 55 -30z m146 16 c14
-38 7 -44 -49 -44 -57 0 -74 12 -61 45 8 22 102 21 110 -1z m146 -10 c6 -14
10 -27 10 -30 0 -2 -27 -4 -60 -4 l-60 0 0 30 c0 29 1 30 50 30 45 0 52 -3 60
-26z m144 10 c14 -38 7 -44 -49 -44 -30 0 -55 3 -55 8 0 4 -3 17 -6 30 -6 21
-3 22 49 22 41 0 56 -4 61 -16z m441 -14 l16 -30 -36 0 c-32 0 -35 2 -35 30 0
23 4 30 20 30 12 0 26 -12 35 -30z m149 5 c9 -13 16 -27 16 -30 0 -3 -24 -5
-54 -5 -45 0 -58 4 -70 22 -24 34 -20 38 38 38 46 0 56 -4 70 -25z m-1931 -51
c9 -3 13 -13 10 -25 -4 -16 -14 -19 -59 -19 -58 0 -59 1 -44 31 11 19 60 26
93 13z m145 -21 c3 -22 0 -23 -52 -23 -39 0 -56 4 -56 13 0 25 25 38 65 35 33
-2 41 -7 43 -25z m140 0 c3 -22 0 -23 -52 -23 -49 0 -56 3 -56 19 0 24 14 30
65 28 33 -2 41 -6 43 -24z m277 2 c0 -17 -8 -20 -52 -23 -46 -3 -53 -1 -53 16
0 28 10 33 60 30 37 -3 45 -6 45 -23z m143 -2 c3 -22 0 -23 -52 -23 -48 0 -56
3 -56 18 0 28 10 33 60 30 38 -3 45 -6 48 -25z m140 0 c3 -22 0 -23 -52 -23
-48 0 -56 3 -56 18 0 28 10 33 60 30 38 -3 45 -6 48 -25z m126 21 c9 -3 16
-15 16 -25 0 -16 -8 -19 -55 -19 -47 0 -55 3 -55 18 0 10 3 22 7 25 8 9 66 9
87 1z m150 -10 c12 -30 6 -34 -49 -34 -47 0 -55 3 -55 18 0 27 9 32 56 32 29
0 44 -5 48 -16z m134 4 c26 -26 13 -38 -43 -38 -52 0 -55 1 -55 25 0 23 4 25
43 25 24 0 48 -5 55 -12z m92 -13 c0 -20 -5 -25 -25 -25 -20 0 -25 5 -25 25 0
20 5 25 25 25 20 0 25 -5 25 -25z m470 6 c15 -30 14 -31 -40 -31 -47 0 -50 2
-50 25 0 22 4 25 40 25 29 0 42 -5 50 -19z m152 2 c29 -26 22 -33 -34 -33 -49
0 -88 19 -88 42 0 16 102 9 122 -9z m-664 -90 c-26 -2 -71 -2 -100 0 -29 2 -8
3 47 3 55 0 79 -1 53 -3z m42 -66 c0 -8 -27 -17 -77 -24 -43 -7 -86 -15 -95
-18 -15 -6 -18 -2 -18 24 l0 31 95 0 c71 0 95 -3 95 -13z"/>
<path d="M3522 2545 c-150 -42 -243 -186 -213 -333 29 -146 147 -242 297 -242
258 0 388 293 214 483 -80 87 -190 121 -298 92z m35 -25 c-3 -11 0 -20 6 -20
7 0 6 -5 -3 -11 -13 -9 -13 -10 0 -6 8 2 16 16 18 31 5 36 36 31 40 -7 2 -18
9 -27 20 -26 9 0 12 3 6 5 -17 7 -5 44 13 44 11 0 14 -7 11 -25 -7 -35 6 -40
21 -8 6 14 14 23 17 20 3 -3 1 -14 -5 -25 -7 -13 -7 -23 2 -32 10 -10 8 -11
-8 -5 -11 4 -49 10 -85 12 -55 4 -72 1 -110 -19 -127 -68 -148 -244 -41 -341
138 -125 356 -30 355 153 0 64 -29 129 -73 161 -26 19 -29 31 -22 72 2 11 29
8 36 -4 4 -5 0 -18 -9 -28 -20 -22 -9 -36 11 -16 13 14 43 21 43 10 0 -2 -5
-16 -12 -30 -9 -20 -9 -28 1 -38 10 -9 11 -8 6 5 -4 11 0 20 13 27 16 8 21 7
26 -5 8 -20 -1 -34 -20 -34 -17 0 -17 4 1 -45 20 -56 18 -112 -6 -165 l-20
-44 23 -18 c22 -16 22 -18 5 -35 -18 -17 -19 -17 -36 3 -15 19 -20 20 -36 8
-18 -13 -18 -15 3 -36 l21 -23 -24 -11 c-22 -11 -24 -9 -30 16 -5 22 -10 27
-26 23 -16 -4 -20 -13 -17 -36 3 -28 0 -31 -29 -33 -30 -2 -33 0 -33 27 0 22
-5 29 -20 29 -19 0 -24 -10 -21 -38 2 -16 -28 -27 -40 -15 -6 6 -6 19 0 35 8
21 7 27 -7 30 -23 6 -44 -1 -36 -13 3 -5 0 -9 -6 -9 -6 0 -8 -4 -5 -10 7 -12
3 -12 -19 -4 -14 5 -14 9 -1 34 13 25 13 30 0 40 -12 10 -15 10 -15 0 0 -10
-3 -10 -15 0 -9 7 -19 9 -23 5 -4 -4 -1 -10 6 -12 6 -3 10 -9 7 -13 -8 -13
-35 0 -35 16 0 8 9 19 19 26 18 11 18 14 6 39 -39 75 -37 173 6 232 18 25 18
29 4 43 -8 8 -15 19 -15 24 0 18 23 22 38 6 11 -10 12 -16 4 -16 -7 0 -12 -5
-12 -10 0 -7 7 -7 21 0 19 11 19 13 4 36 -8 13 -11 24 -5 24 6 0 14 -9 18 -20
5 -14 11 -17 22 -10 12 7 11 12 -5 31 -17 19 -17 21 -3 16 9 -3 19 -1 22 6 2
7 5 -1 5 -16 1 -18 6 -27 14 -24 6 2 10 14 9 27 -2 12 2 27 10 31 19 13 21 11
15 -11z m13 -85 c0 -8 -4 -15 -10 -15 -5 0 -10 7 -10 15 0 8 5 15 10 15 6 0
10 -7 10 -15z m17 -7 c-3 -8 -6 -5 -6 6 -1 11 2 17 5 13 3 -3 4 -12 1 -19z
m33 7 c0 -8 -4 -15 -10 -15 -5 0 -10 7 -10 15 0 8 5 15 10 15 6 0 10 -7 10
-15z m30 0 c0 -8 -4 -15 -10 -15 -5 0 -10 7 -10 15 0 8 5 15 10 15 6 0 10 -7
10 -15z m-250 -20 c10 -12 10 -19 2 -27 -12 -12 -42 -4 -42 11 0 6 8 7 18 4
15 -6 15 -5 3 10 -7 9 -9 17 -3 17 5 0 15 -7 22 -15z m84 -72 c5 1 14 -13 21
-32 14 -44 31 -50 46 -17 16 34 32 33 46 -4 6 -16 17 -30 25 -29 10 0 10 2 1
6 -17 6 -17 53 0 53 11 0 47 -49 47 -64 0 -3 -27 -6 -61 -6 l-61 0 29 -24 c15
-13 42 -30 59 -39 36 -19 51 -45 29 -53 -26 -10 -118 52 -148 101 -16 25 -33
45 -38 45 -9 0 -39 53 -39 70 0 7 6 8 18 1 9 -5 21 -8 26 -8z m286 3 c0 -8
-12 -24 -27 -35 -16 -12 -33 -25 -40 -31 -17 -14 -23 -12 -23 8 1 20 29 73 30
54 0 -10 5 -10 22 2 28 20 38 20 38 2z m-6 -185 c3 -5 -1 -11 -9 -14 -9 -4
-12 -1 -8 9 6 16 10 17 17 5z m-274 -26 c0 -12 -19 -12 -23 0 -4 9 -1 12 9 8
7 -3 14 -7 14 -8z m232 -24 c-9 -10 -20 -16 -24 -14 -4 2 0 12 10 22 9 10 20
16 24 14 4 -2 0 -12 -10 -22z m-196 -5 c10 -8 16 -18 11 -22 -4 -4 -7 -2 -7 5
0 7 -4 9 -10 6 -5 -3 -10 -1 -10 5 0 6 -4 8 -10 5 -5 -3 -10 -1 -10 4 0 15 13
14 36 -3z m131 -28 c-3 -8 -6 -5 -6 6 -1 11 2 17 5 13 3 -3 4 -12 1 -19z m-17
2 c0 -5 -2 -10 -4 -10 -3 0 -8 5 -11 10 -3 6 -1 10 4 10 6 0 11 -4 11 -10z"/>
<path d="M3785 2090 c3 -5 11 -10 16 -10 6 0 7 5 4 10 -3 6 -11 10 -16 10 -6
0 -7 -4 -4 -10z"/>
<path d="M3630 2029 c0 -5 5 -7 10 -4 6 3 10 8 10 11 0 2 -4 4 -10 4 -5 0 -10
-5 -10 -11z"/>
<path d="M4672 2360 c0 -14 2 -19 5 -12 2 6 2 18 0 25 -3 6 -5 1 -5 -13z"/>
<path d="M4820 2360 c0 -19 3 -21 12 -12 9 9 9 15 0 24 -9 9 -12 7 -12 -12z"/>
<path d="M4767 2218 c-10 -34 -9 -38 8 -38 16 0 20 27 6 48 -6 10 -10 8 -14
-10z"/>
<path d="M4411 1294 c0 -11 3 -14 6 -6 3 7 2 16 -1 19 -3 4 -6 -2 -5 -13z"/>
<path d="M3015 1060 c-18 -8 -17 -9 8 -9 16 -1 26 3 22 9 -3 6 -7 10 -8 9 -1
0 -11 -4 -22 -9z"/>
<path d="M1982 773 c2 -31 7 -39 26 -41 20 -3 22 0 17 25 -11 48 -14 53 -30
53 -13 0 -15 -9 -13 -37z"/>
<path d="M1930 775 c-7 -9 -10 -18 -6 -22 3 -3 6 0 6 8 0 12 2 11 10 -1 7 -12
9 -10 7 8 -2 26 -1 26 -17 7z"/>
<path d="M1960 720 c0 -5 5 -10 11 -10 5 0 7 5 4 10 -3 6 -8 10 -11 10 -2 0
-4 -4 -4 -10z"/>
</g>
</svg>
