<svg id="Capa_1" data-name="Capa 1" xmlns="http://www.w3.org/2000/svg" viewBox="0 0 737.01 737.01"><defs><style>.cls-1{fill:#979696;}.cls-2,.cls-6{fill:#f1f1f1;}.cls-3{fill:#1882c1;}.cls-4{fill:#fff;}.cls-5{fill:#c2302e;}.cls-6{stroke:#1e1d1c;stroke-miterlimit:10;stroke-width:3px;}.cls-7{fill:#044c8a;}.cls-8{fill:#1e1d1c;}</style></defs><circle class="cls-1" cx="238.17" cy="153.54" r="6.28"/><circle class="cls-2" cx="551.48" cy="203.87" r="178.98"/><polygon class="cls-3" points="627.54 608.18 590.74 608.18 587.62 540.96 633.94 540.96 627.54 608.18"/><circle class="cls-2" cx="175.15" cy="542.72" r="169.1"/><path class="cls-4" d="M235.7,531.14c-19.45,24.33-39.84,47.86-62.81,69-10.91,10-22.21,19.61-36,25.68-13.15,5.8-22.41,3.92-32.21-6.63-9.33-10-14-22.45-17.22-35.41-7-27.85-7.53-56.16-6.44-84.71,1.75-45.85,17-88.24,31.86-130.84,12.29-35.34,28.52-68.55,52-97.93,34.34-42.95,77-74.17,129.19-92.17,3.67-1.26,45.86-11.08,65.19-11.38,25.7-.39,58.19,5.28,63.95,6.14q105,15.67,169.87,99.68c27.55,35.56,45.64,75.52,56.16,119.18,8.26,34.28,18.68,68,26.5,102.4,5.23,23,10.87,45.92,10.59,69.75,0,.67,0,1.33,0,2-.6,11.87-4.72,15.55-16.6,15.1-11.5-.43-22.76-2.53-34-4.53-2-.36-3-1-2.74-3.54,1.78-16.53,3.22-33.11,5.08-49.63.38-3.38-.6-4-3.59-3.94q-23,.15-46,0c-2.92,0-4,.55-3.75,3.93.84,13.44,1.24,26.91,1.83,40.81-9-1.64-8.34-1.75-16.65-4.25-21.4-6.41-8.94-2.59-30.29-9.13l.86,7.24q-.26,22.48,0,45c0,3.19-.92,3.77-3.9,3.77q-149.19-.12-298.37,0c-3.14,0-3.83-.82-3.81-3.86q.21-30.74,0-61.47c0-3,1.25-5,2.93-7.06"/><polygon class="cls-5" points="342.54 384.44 326.85 377.8 363.93 330.15 376.92 340.26 342.54 384.44"/><circle class="cls-5" cx="398.49" cy="304.13" r="55.3"/><circle class="cls-4" cx="398.49" cy="304.13" r="41.3"/><path class="cls-6" d="M465.91,575,336.05,538.4a5.05,5.05,0,0,1-3.46-6.35L393.73,326.7a5.25,5.25,0,0,1,6.42-3.57L530,359.71a5.05,5.05,0,0,1,3.46,6.35L472.33,571.41A5.25,5.25,0,0,1,465.91,575Z"/><path class="cls-1" d="M236,58.63c9.23.24,16.88,3.48,21.56,11.8,5.54,9.85,4.35,19.68-1.07,29.13a63.85,63.85,0,0,1-9.2,11.82c-4.48,4.76-8.11,9.94-7.6,17,.18,2.51-.78,4.46-3.68,4.36-2.53-.09-3.19-1.95-3.35-4.16-.4-5.51-.05-10.79,3.56-15.39s7.06-9.21,10.53-13.86c3.64-4.9,6.56-10.13,6-16.53-.57-6.91-3.57-12.4-10.32-14.88-8-2.94-15.31-1-21.89,4.31-2.51,2-4.86,7.11-8.63,2.56-3.3-4,1.18-6.48,3.64-8.76C221.29,60.73,228.34,58.79,236,58.63Z"/><path class="cls-4" d="M494.14,521.56l-7.12.9c-.26-3.13-2.73-2.35-4.54-2.46-14.59-.82-29.16-1.78-43.4-5.41a72.25,72.25,0,0,1-14.88-5.43c-18.94-9.67-15.78-26.24-5.91-38,7.46-8.9,17.8-8.91,28-7,16.66,3.12,31.45,11,46,19.26,3.88,2.19,9.7,3.33,11,7.06,1.13,3.34-1.8,8.12-3.08,12.22C498.27,509,496.18,515.27,494.14,521.56Z"/><path class="cls-7" d="M632.93,541H588.85c-.29-5.29-.54-10.59-.9-15.87-.13-2,.65-2.61,2.56-2.61q20.93.07,41.84,0c2.16,0,2.36.88,2.16,2.69C633.9,530.42,633.44,535.69,632.93,541Z"/><path class="cls-8" d="M379.13,224.73c.8,1,2,2.15.38,3.35-1.43,1.08-2.1-.43-2.72-1.22-6.69-8.51-15.27-11.06-25.62-8.4-1,.26-2.43.82-2.81-.87-.35-1.51.82-1.77,2-2.21C364.91,212.4,372.49,217.06,379.13,224.73Z"/><path class="cls-8" d="M188.59,608.33c-.07-2,2.1-1.7,3.54-1.7q18,0,36,0c2,0,3.4.11,3.38-2.74-.12-20.28-.06-40.56-.06-62.06-4.09,4.75-7.46,8.69-10.85,12.62-19.39,22.44-39.24,44.41-62.91,62.54a95.42,95.42,0,0,1-21.82,12.83c-11.4,4.69-21.38,2.48-30.39-5.55-11.54-10.3-17.1-24-20.79-38.37-7.37-28.78-7.81-58.11-6.68-87.65,1.75-45.82,16.89-88.24,31.82-130.78.21-.61.33-1.25.49-1.88,5.4-13.13,9.89-26.63,16.15-39.42,38.25-78.71,92.77-124.1,156-147.53,4.38-1.41,8.74-2.86,13.14-4.21,2.11-.64,2-2.06,1.94-3.85-.08-6-.51-12,.16-17.89a62.92,62.92,0,0,1,7-22.16c7.45-14.22,23.84-24.37,34.46-27,10.79-2.72,30.85-1.53,44.32,4.19,17.76,7.54,31.17,19.42,37.21,38.39a30.7,30.7,0,0,1,0,19.57c-.84,2.5-1.23,3.65,2.5,4.19,67.08,9.7,122.5,40.33,165.92,92.61,32.33,38.92,52.77,83.41,64.34,132.45,7.79,33,17.84,65.45,25.47,98.51,4,17.45,7.94,34.93,9.74,52.8.08.8,1,13.37.72,18.84-.87,18-6.82,19.35-21.66,18.85-6-.2-29.25-3.75-35.25-4.81-.88,8.54-1.64,16.81-2.62,25.06-.47,3.9,2.36,2.42,3.86,2.43,19.5.09,39,0,58.49.1,1.9,0,5.18-.9,3.19,3.19-1.21,0-500.29.44-500.29.44C188.91,610.13,188.63,609.63,188.59,608.33Zm355-13.75c-.06,3,0,6-.21,8.93-.15,2.26.41,3.19,2.94,3.16,13.1-.12,26.19-.09,39.29,0,2.16,0,3-.58,2.79-2.79-.4-4.43-.64-8.88-.94-13.32-.23-6.64-.51-13.28-.63-19.92,0-1.9-.46-3-2.49-3.53-13.5-3.76-27-7.65-40.75-11.58Zm-51.37-55.36c-2.15-.85-3.18-1.7-2.12-4.41,1.68-4.28,14.33-41,13.2-44.35-1.27-3.73-7.09-4.87-11-7.06-14.58-8.24-29.37-16.14-46-19.26-10.22-1.91-20.56-1.9-28,7-9.87,11.78-13,28.35,5.91,38,14.67,7.49,43.69,10,58.28,10.84,1.81.11,4.28-.67,4.54,2.46-4.71,2.13-9.5.21-14.18,0-15.28-.67-30.44-2.55-44.86-8-24.85-9.42-25.06-28.93-12.87-44.63,8.25-10.63,20.17-10.94,32.26-8.69,18.41,3.43,34.59,12.34,50.36,21.74,8.84,6.92,19.2,5.92,39.59,6.73,2.35.21,3.21-.47,3.12-3-.19-5,0-10-.06-15,0-1.24.12-2.68,1.47-2.73s1.6,1.35,1.59,2.6c0,3.5,0,7,0,10.5,0,8,0,8,8.22,8.43q30.89,1.71,61.77,3.54c1.46.09,4.06-.66,3.86,1.78-.18,2.22-2.63,1.39-4.15,1.31q-51.33-2.83-102.64-5.82c-2.8-.16-3.67.76-4.42,3.26-3.79,12.69-7.6,25.37-11.87,37.89-1.2,3.51.07,4.23,2.76,5.05,21.35,6.55,77.77,23.55,89.6,26.64-.59-13.9-1-27.37-1.83-40.81-.21-3.38.83-3.94,3.75-3.93q23,.15,46,0c3,0,4,.56,3.59,3.94-1.86,16.52-3.3,33.1-5.08,49.63-.28,2.55.7,3.18,2.74,3.54,11.29,2,22.55,4.1,34,4.53,11.88.45,16-3.23,16.6-15.1,0-.67,0-1.33,0-2,.28-23.83-5.36-46.77-10.59-69.75-7.82-34.39-18.24-68.12-26.5-102.4-10.52-43.66-28.61-83.62-56.16-119.18q-65-83.82-169.87-99.68c-5.76-.86-10,2.9-9.51,8.61a66.72,66.72,0,0,1-2.4,24.17c-4.32,15-11.59,28.23-26.53,34.94-17.63,7.92-34,3-48.66-7.71-17.81-13-29.45-30.82-36-51.84-1.16-3.75-2.39-4.19-6.06-2.93-52.17,18-94.85,49.22-129.19,92.17-23.49,29.38-39.72,62.59-52,97.93-14.82,42.6-30.11,85-31.86,130.84-1.09,28.55-.59,56.86,6.44,84.71,3.27,13,7.89,25.38,17.22,35.41,9.8,10.55,19.06,12.43,32.21,6.63,13.75-6.07,25-15.66,36-25.68,23-21.12,43.36-44.65,62.81-69,17.05-21.34,32-44,43.22-69.06,1.06-2.35,1.11-4-.57-6.2-7.46-9.78-14.72-19.71-22-29.63-1.44-2-2.47-2.76-5.08-1.12-12.36,7.78-24.92,15.25-37.41,22.83-7.94,4.83-15.86,9.7-23.83,14.49-1,.61-2.37,2.14-3.42.51s.56-2.6,1.88-3.37c.43-.25.85-.53,1.28-.78,12.62-7.67,25.19-15.43,37.91-22.94,2.77-1.63,3.87-3.3,3.84-6.62-.18-20.32-.09-40.65-.09-61,0-7.33,0-14.66,0-22,0-1-.62-2.58,1.19-2.73,2.07-.18,1.76,1.48,1.8,2.77,0,1,0,2,0,3v82.52c7.86-5,15.2-9.18,22-14.06,17.46-12.45,34.68-25.21,52.64-36.95,6-3.9,11.94-6.46,19.1-3.86l15.65,5.89c2.8,1.77,5.74,3.34,8.37,5.33,6.85,5.18,8,9.31,5.19,17.36a33.71,33.71,0,0,1-2.7,5.85c-11.48,19.33-27.08,31.66-51,30.18-8.64-.54-17.26-1.05-25.77-2.72-1.09-.21-2.62-.2-2.33-1.87.26-1.49,1.6-1.47,2.81-1.24.66.12,1.29.37,1.94.46,12.38,1.74,24.75,3,37.27,1.35,17.4-2.33,34.11-23.14,37.53-35.36,1.32-4.71-.53-8.4-4.43-11.23-7.64-5.55-16.25-8.84-25.26-11.32a13.42,13.42,0,0,0-11.29,1.88c-19.1,11.83-37,25.41-55.24,38.43-2.24,1.59-1.52,2.69-.25,4.38,7.5,10,14.79,20.08,22.43,29.94,2.25,2.91,2.47,5.27,1,8.55-11.66,25.91-27.21,49.36-44.87,71.49-1.68,2.11-2.95,4.07-2.93,7.06q.23,30.74,0,61.47c0,3,.67,3.86,3.81,3.86q149.18-.13,298.37,0c3,0,3.94-.58,3.9-3.77q-.29-22.49,0-45c0-2.94-1-3.89-3.69-4.67M632.93,541c.51-5.27,1-10.54,1.58-15.8.2-1.81,0-2.7-2.16-2.69q-20.93.1-41.84,0c-1.91,0-2.69.65-2.56,2.61.36,5.28.61,10.58.9,15.87.85,21.09,1.76,42.19,2.51,63.29.1,2.66,1.62,2.37,3.3,2.37,8.49,0,17-.49,25.47.17,5.71.45,6.77-1.93,7.19-6.75C629,580.33,631,560.65,632.93,541ZM410.17,182.31c-21.17,19.77-43.81,19.58-67.38,4.87-1,3.57-1.21,10.76-5,12.28-2.91,1.17-8.34-7.69-10.5-10.83-1.3-1.89-5.22-8.33-9.29-5.73-3.47,2.21,2.48,14,3.91,18.88.93,3.17,2.64,6.64,1.11,9.66-1.38,2.74-.5,4.19,1,6,7.23,8.45,15.62,15.36,25.92,19.76,8.78,3.75,17.82,5,27.22,2.81C401.62,234.24,412.9,202.16,410.17,182.31Z"/></svg>